<svg viewBox="0 0 18 22" fill="none" xmlns="http://www.w3.org/2000/svg">
<path d="M15.0751 12.0053C15.0507 9.34539 17.2998 8.05133 17.4026 7.99109C16.1289 6.17297 14.1546 5.92456 13.4608 5.90476C11.8026 5.73392 10.1942 6.87612 9.34953 6.87612C8.48799 6.87612 7.18725 5.92126 5.78536 5.94932C3.98135 5.97656 2.29368 6.99909 1.36808 8.58695C-0.542143 11.8246 0.882515 16.5823 2.71265 19.1993C3.62814 20.481 4.6979 21.9121 6.09811 21.8617C7.46797 21.8064 7.97967 21.0067 9.63278 21.0067C11.2707 21.0067 11.7512 21.8617 13.1792 21.8295C14.6494 21.8064 15.575 20.5421 16.4585 19.2489C17.5164 17.7798 17.9413 16.3331 17.9582 16.2588C17.9236 16.2473 15.103 15.1934 15.0751 12.0053Z" fill="white"/>
<path d="M12.3776 4.1832C13.1143 3.28116 13.6184 2.05396 13.4785 0.808594C12.4121 0.85481 11.0785 1.53072 10.3105 2.41296C9.63109 3.19038 9.02413 4.46463 9.18093 5.66295C10.3788 5.75043 11.6087 5.07121 12.3776 4.1832Z" fill="white"/>
</svg>
