<svg width="21" height="20" viewBox="0 0 21 20" fill="none" xmlns="http://www.w3.org/2000/svg">
<path d="M1.90584 18.5941C3.31174 20 5.5745 20 10.1 20H10.9C15.4255 20 17.6883 20 19.0941 18.5941C20.5 17.1883 20.5 14.9255 20.5 10.3999V9.6C20.5 5.07446 20.5 2.81173 19.0941 1.40584C17.6883 0 15.4255 0 10.9 0H10.1C5.5745 0 3.31174 0 1.90584 1.40584C0.500001 2.81173 0.5 5.07446 0.5 9.6V10.3999C0.5 14.9255 0.500001 17.1883 1.90584 18.5941Z" fill="#0077FF"/>
<path fill-rule="evenodd" clip-rule="evenodd" d="M15.9403 13.2937L14.589 12.9561C14.4262 12.9094 14.3113 12.763 14.3055 12.5929L14.1369 7.61911C14.0881 6.9608 13.5994 6.43718 13.0888 6.28305C13.0601 6.27436 13.0295 6.28605 13.0125 6.31068C12.9952 6.3358 13.0019 6.37049 13.026 6.38905C13.1521 6.48674 13.4992 6.8053 13.4992 7.35474L13.4981 13.8577C13.4981 14.4857 12.9048 14.9462 12.2928 14.7933L10.9205 14.4506C10.7684 14.3973 10.6627 14.2556 10.6571 14.0921L10.4885 9.11805C10.4397 8.45974 9.95103 7.93624 9.4404 7.78199C9.41174 7.77336 9.38112 7.78499 9.36411 7.80968C9.34691 7.83474 9.35357 7.86943 9.3776 7.88811C9.50375 7.98568 9.85076 8.30424 9.85076 8.85368L9.84978 14.2743L9.85058 14.2744V15.3574C9.85058 15.9852 9.25719 16.4459 8.64512 16.2929L4.7692 15.3247C4.23034 15.1901 3.85254 14.7081 3.85254 14.1552V7.64205C3.85254 7.01411 4.44589 6.55361 5.05792 6.70649L7.50018 7.31661V6.14246C7.50018 5.51455 8.09351 5.05397 8.70558 5.2069L11.1477 5.81695V4.64281C11.1477 4.01491 11.741 3.55433 12.3531 3.70725L16.229 4.67546C16.7679 4.81008 17.1457 5.29208 17.1457 5.84495V12.3581C17.1457 12.9861 16.5524 13.4466 15.9403 13.2937Z" fill="white"/>
</svg>
