<svg width="120" height="120" viewBox="0 0 120 120" fill="none" xmlns="http://www.w3.org/2000/svg">
<path d="M32.8079 3.74512L30.336 3.74512C29.6328 3.74512 29.0627 3.17499 29.0627 2.47171V1.27321C29.0627 0.569923 29.6328 -0.000201389 30.336 -0.000201389L32.8079 -0.000201389V3.74512Z" fill="#191C22"/>
<path d="M32.6956 3.74512V-0.000201389H35.1674C35.8707 -0.000201389 36.4408 0.569923 36.4408 1.27321V3.74512L32.6956 3.74512Z" fill="#191C22"/>
<path d="M38.9314 3.67044V3.74535H40.0737V2.60303H39.9988C39.9988 3.19479 39.5194 3.67044 38.9314 3.67044Z" fill="#191C22"/>
<path d="M43.7063 3.74512L39.9611 3.74512V1.27321C39.9611 0.569923 40.5312 -0.000201389 41.2345 -0.000201389L43.7063 -0.000201389V3.74512Z" fill="#191C22"/>
<path d="M47.3394 0H43.5942V3.74532H47.3394V0Z" fill="#191C22"/>
<path d="M47.2271 3.74512V-0.000201389H49.6989C50.4021 -0.000201389 50.9723 0.569923 50.9723 1.27321V3.74512L47.2271 3.74512Z" fill="#191C22"/>
<path d="M61.8706 3.74512L58.1254 3.74512V1.27321C58.1254 0.569923 58.6955 -0.000201389 59.3988 -0.000201389L61.8706 -0.000201389V3.74512Z" fill="#191C22"/>
<path d="M65.5035 0H61.7583V3.74532H65.5035V0Z" fill="#191C22"/>
<path d="M65.3911 3.74512V-0.000201389H67.8629C68.5662 -0.000201389 69.1363 0.569923 69.1363 1.27321V3.74512L65.3911 3.74512Z" fill="#191C22"/>
<path d="M72.657 1.07116V2.6779C72.657 3.26966 73.1364 3.74532 73.7281 3.74532H75.3348C75.9303 3.74532 76.4059 3.26592 76.4059 2.67416V1.07116C76.4022 0.475655 75.9228 0 75.3311 0H73.7281C73.1364 0 72.657 0.479401 72.657 1.07116Z" fill="#191C22"/>
<path d="M79.9226 3.74512V1.27321C79.9226 0.569923 80.4927 -0.000201389 81.196 -0.000201389H82.3944C83.0977 -0.000201389 83.6678 0.569923 83.6678 1.27321V3.74512L79.9226 3.74512Z" fill="#191C22"/>
<path d="M87.1882 3.74512V1.27321C87.1882 0.569923 87.7583 -0.000201389 88.4616 -0.000201389H89.6601C90.3633 -0.000201389 90.9334 0.569923 90.9334 1.27321V3.74512L87.1882 3.74512Z" fill="#191C22"/>
<path d="M40.0735 7.37793L36.3283 7.37793V4.90602C36.3283 4.20274 36.8984 3.63261 37.6017 3.63261L40.0735 3.63261V7.37793Z" fill="#191C22"/>
<path d="M39.9612 3.63281H43.7064V6.10472C43.7064 6.80801 43.1363 7.37813 42.433 7.37813H39.9612V3.63281Z" fill="#191C22"/>
<path d="M50.9723 3.63281H47.2271V7.37813H50.9723V3.63281Z" fill="#191C22"/>
<path d="M50.8599 7.37793V3.63261H53.3317C54.035 3.63261 54.6051 4.20274 54.6051 4.90602V7.37793H50.8599Z" fill="#191C22"/>
<path d="M61.8706 3.63281V6.10472C61.8706 6.80801 61.3005 7.37813 60.5972 7.37813H59.3988C58.6955 7.37813 58.1254 6.80801 58.1254 6.10472V3.63281L61.8706 3.63281Z" fill="#191C22"/>
<path d="M69.1363 3.63281H65.3911V7.37813H69.1363V3.63281Z" fill="#191C22"/>
<path d="M69.0242 7.37793V3.63261H71.496C72.1993 3.63261 72.7694 4.20274 72.7694 4.90602V7.37793H69.0242Z" fill="#191C22"/>
<path d="M83.6677 3.63281V6.10472C83.6677 6.80801 83.0976 7.37813 82.3944 7.37813H81.1959C80.4926 7.37813 79.9225 6.80801 79.9225 6.10472V3.63281L83.6677 3.63281Z" fill="#191C22"/>
<path d="M86.1584 7.30326V7.37816H87.3007V6.23584H87.2258C87.2258 6.8276 86.7464 7.30326 86.1584 7.30326Z" fill="#191C22"/>
<path d="M90.9334 3.63281H87.1882V7.37813H90.9334V3.63281Z" fill="#191C22"/>
<path d="M29.0627 8.33727V9.94402C29.0627 10.5358 29.5421 11.0114 30.1339 11.0114H31.7406C32.3361 11.0114 32.8117 10.532 32.8117 9.94027V8.33727C32.8079 7.74177 32.3286 7.26611 31.7368 7.26611H30.1339C29.5421 7.26611 29.0627 7.74551 29.0627 8.33727Z" fill="#191C22"/>
<path d="M40.0736 7.26611H36.3284V11.0114H40.0736V7.26611Z" fill="#191C22"/>
<path d="M47.3394 11.0112H43.5942V8.53932C43.5942 7.83604 44.1643 7.26591 44.8675 7.26591H47.3394V11.0112Z" fill="#191C22"/>
<path d="M47.2271 7.26611H50.9723V9.73802C50.9723 10.4413 50.4021 11.0114 49.6989 11.0114H47.2271V7.26611Z" fill="#191C22"/>
<path d="M65.5034 11.0112H63.0316C62.3283 11.0112 61.7582 10.4411 61.7582 9.73782V8.53932C61.7582 7.83604 62.3283 7.26591 63.0316 7.26591H65.5034V11.0112Z" fill="#191C22"/>
<path d="M69.1363 7.26611H65.3911V11.0114H69.1363V7.26611Z" fill="#191C22"/>
<path d="M71.627 10.9366V11.0115H72.7692V9.86914H72.6943C72.6943 10.4609 72.2149 10.9366 71.627 10.9366Z" fill="#191C22"/>
<path d="M76.4021 11.0112H72.6569V8.53932C72.6569 7.83604 73.227 7.26591 73.9303 7.26591H76.4021V11.0112Z" fill="#191C22"/>
<path d="M76.2898 11.0112V7.26591H78.7616C79.4649 7.26591 80.035 7.83604 80.035 8.53932V11.0112H76.2898Z" fill="#191C22"/>
<path d="M87.3005 11.0112H83.5553V8.53932C83.5553 7.83604 84.1254 7.26591 84.8287 7.26591H87.3005V11.0112Z" fill="#191C22"/>
<path d="M87.1882 7.26611H90.9334V9.73802C90.9334 10.4413 90.3633 11.0114 89.6601 11.0114H87.1882V7.26611Z" fill="#191C22"/>
<path d="M40.0735 10.8989V13.3708C40.0735 14.0741 39.5034 14.6442 38.8001 14.6442H37.6017C36.8984 14.6442 36.3283 14.0741 36.3283 13.3708V10.8989H40.0735Z" fill="#191C22"/>
<path d="M42.5642 14.5694V14.6443H43.7065V13.502H43.6316C43.6316 14.0937 43.1522 14.5694 42.5642 14.5694Z" fill="#191C22"/>
<path d="M47.3394 10.8989H43.5942V14.6442H47.3394V10.8989Z" fill="#191C22"/>
<path d="M53.4626 14.5694V14.6443H54.6049V13.502H54.53C54.53 14.0937 54.0506 14.5694 53.4626 14.5694Z" fill="#191C22"/>
<path d="M54.4927 14.644V12.1721C54.4927 11.4688 55.0628 10.8987 55.766 10.8987H56.9645C57.6678 10.8987 58.2379 11.4688 58.2379 12.1721V14.644H54.4927Z" fill="#191C22"/>
<path d="M69.1363 10.8989H65.3911V14.6442H69.1363V10.8989Z" fill="#191C22"/>
<path d="M72.7694 10.8989H69.0242V14.6442H72.7694V10.8989Z" fill="#191C22"/>
<path d="M76.4022 10.8989H72.657V14.6442H76.4022V10.8989Z" fill="#191C22"/>
<path d="M80.035 10.8989H76.2898V14.6442H80.035V10.8989Z" fill="#191C22"/>
<path d="M87.3006 10.8989H83.5554V14.6442H87.3006V10.8989Z" fill="#191C22"/>
<path d="M32.8079 18.2769H30.336C29.6328 18.2769 29.0627 17.7067 29.0627 17.0034V15.8049C29.0627 15.1017 29.6328 14.5315 30.336 14.5315H32.8079V18.2769Z" fill="#191C22"/>
<path d="M32.6956 18.2769V14.5315H35.1674C35.8707 14.5315 36.4408 15.1017 36.4408 15.8049V18.2769H32.6956Z" fill="#191C22"/>
<path d="M43.7063 18.2769H41.2345C40.5312 18.2769 39.9611 17.7067 39.9611 17.0034V15.8049C39.9611 15.1017 40.5312 14.5315 41.2345 14.5315H43.7063V18.2769Z" fill="#191C22"/>
<path d="M43.5942 14.5317H47.3394V17.0036C47.3394 17.7069 46.7693 18.2771 46.0661 18.2771H43.5942V14.5317Z" fill="#191C22"/>
<path d="M54.605 18.2769H52.1331C51.4299 18.2769 50.8598 17.7067 50.8598 17.0034V15.8049C50.8598 15.1017 51.4299 14.5315 52.1331 14.5315H54.605V18.2769Z" fill="#191C22"/>
<path d="M58.2379 14.5317H54.4927V18.2771H58.2379V14.5317Z" fill="#191C22"/>
<path d="M61.8707 14.5317H58.1255V18.2771H61.8707V14.5317Z" fill="#191C22"/>
<path d="M65.5035 14.5317H61.7583V18.2771H65.5035V14.5317Z" fill="#191C22"/>
<path d="M69.1363 14.5317H65.3911V18.2771H69.1363V14.5317Z" fill="#191C22"/>
<path d="M76.4022 14.5317H72.657V18.2771H76.4022V14.5317Z" fill="#191C22"/>
<path d="M76.2898 14.5317H80.035V17.0036C80.035 17.7069 79.4649 18.2771 78.7616 18.2771H76.2898V14.5317Z" fill="#191C22"/>
<path d="M87.3005 14.5317V17.0036C87.3005 17.7069 86.7304 18.2771 86.0272 18.2771H84.8287C84.1254 18.2771 83.5553 17.7069 83.5553 17.0036V14.5317H87.3005Z" fill="#191C22"/>
<path d="M36.4407 18.1646V21.9099H33.9688C33.2656 21.9099 32.6955 21.3397 32.6955 20.6365V18.1646H36.4407Z" fill="#191C22"/>
<path d="M36.3284 21.9097V18.1643H38.8002C39.5035 18.1643 40.0736 18.7345 40.0736 19.4378V21.9097H36.3284Z" fill="#191C22"/>
<path d="M58.2378 18.1646V21.9099H55.766C55.0627 21.9099 54.4926 21.3397 54.4926 20.6365V18.1646H58.2378Z" fill="#191C22"/>
<path d="M61.8707 18.1646H58.1255V21.9099H61.8707V18.1646Z" fill="#191C22"/>
<path d="M69.1363 18.1646H65.3911V21.9099H69.1363V18.1646Z" fill="#191C22"/>
<path d="M72.7694 18.1646H69.0242V21.9099H72.7694V18.1646Z" fill="#191C22"/>
<path d="M76.4022 18.1646H72.657V21.9099H76.4022V18.1646Z" fill="#191C22"/>
<path d="M29.0627 25.543V23.0711C29.0627 22.3678 29.6329 21.7977 30.3361 21.7977H31.5346C32.2378 21.7977 32.8079 22.3678 32.8079 23.0711V25.543H29.0627Z" fill="#191C22"/>
<path d="M40.0736 21.7979H36.3284V25.5432H40.0736V21.7979Z" fill="#191C22"/>
<path d="M43.5942 22.869V24.4758C43.5942 25.0675 44.0736 25.5432 44.6654 25.5432H46.2721C46.8675 25.5432 47.3432 25.0638 47.3432 24.472V22.869C47.3394 22.2735 46.8601 21.7979 46.2683 21.7979H44.6654C44.0736 21.7979 43.5942 22.2773 43.5942 22.869Z" fill="#191C22"/>
<path d="M50.8599 22.869V24.4758C50.8599 25.0675 51.3392 25.5432 51.931 25.5432H53.5377C54.1332 25.5432 54.6088 25.0638 54.6088 24.472V22.869C54.6051 22.2735 54.1257 21.7979 53.5339 21.7979H51.931C51.3392 21.7979 50.8599 22.2773 50.8599 22.869Z" fill="#191C22"/>
<path d="M61.8707 21.7979H58.1255V25.5432H61.8707V21.7979Z" fill="#191C22"/>
<path d="M69.1363 21.7979H65.3911V25.5432H69.1363V21.7979Z" fill="#191C22"/>
<path d="M76.4022 21.7979H72.657V25.5432H76.4022V21.7979Z" fill="#191C22"/>
<path d="M79.9226 25.543V23.0711C79.9226 22.3678 80.4927 21.7977 81.196 21.7977H82.3944C83.0977 21.7977 83.6678 22.3678 83.6678 23.0711V25.543H79.9226Z" fill="#191C22"/>
<path d="M87.1882 22.869V24.4758C87.1882 25.0675 87.6676 25.5432 88.2594 25.5432H89.8661C90.4615 25.5432 90.9372 25.0638 90.9372 24.472V22.869C90.9334 22.2735 90.454 21.7979 89.8623 21.7979H88.2594C87.6676 21.7979 87.1882 22.2773 87.1882 22.869Z" fill="#191C22"/>
<path d="M32.8079 25.4307V27.9026C32.8079 28.6059 32.2378 29.176 31.5345 29.176H30.336C29.6328 29.176 29.0627 28.6059 29.0627 27.9026V25.4307H32.8079Z" fill="#191C22"/>
<path d="M35.2986 29.1011V29.176H36.4409V28.0337H36.366C36.366 28.6255 35.8866 29.1011 35.2986 29.1011Z" fill="#191C22"/>
<path d="M40.0736 25.4307H36.3284V29.176H40.0736V25.4307Z" fill="#191C22"/>
<path d="M39.9612 29.1758V25.4305H42.433C43.1363 25.4305 43.7064 26.0006 43.7064 26.7039V29.1758H39.9612Z" fill="#191C22"/>
<path d="M58.2378 29.1758H55.766C55.0627 29.1758 54.4926 28.6057 54.4926 27.9024V26.7039C54.4926 26.0006 55.0627 25.4305 55.766 25.4305H58.2378V29.1758Z" fill="#191C22"/>
<path d="M58.1255 25.4307H61.8707V27.9026C61.8707 28.6059 61.3006 29.176 60.5973 29.176H58.1255V25.4307Z" fill="#191C22"/>
<path d="M69.1363 25.4307H65.3911V29.176H69.1363V25.4307Z" fill="#191C22"/>
<path d="M72.7694 25.4307H69.0242V29.176H72.7694V25.4307Z" fill="#191C22"/>
<path d="M72.657 25.4307H76.4022V27.9026C76.4022 28.6059 75.8321 29.176 75.1288 29.176H72.657V25.4307Z" fill="#191C22"/>
<path d="M83.6678 25.4307H79.9226V29.176H83.6678V25.4307Z" fill="#191C22"/>
<path d="M21.9094 32.8086H19.4376C18.7343 32.8086 18.1642 32.2385 18.1642 31.5352V30.3367C18.1642 29.6334 18.7343 29.0633 19.4376 29.0633H21.9094V32.8086Z" fill="#191C22"/>
<path d="M21.7971 32.8086V29.0633H24.269C24.9722 29.0633 25.5423 29.6334 25.5423 30.3367V32.8086H21.7971Z" fill="#191C22"/>
<path d="M36.4407 32.8086H33.9688C33.2656 32.8086 32.6955 32.2385 32.6955 31.5352V30.3367C32.6955 29.6334 33.2656 29.0633 33.9688 29.0633H36.4407V32.8086Z" fill="#191C22"/>
<path d="M40.0736 29.0635H36.3284V32.8088H40.0736V29.0635Z" fill="#191C22"/>
<path d="M39.9612 29.0635H43.7064V31.5354C43.7064 32.2387 43.1363 32.8088 42.433 32.8088H39.9612V29.0635Z" fill="#191C22"/>
<path d="M49.8298 32.7339V32.8088H50.9721V31.6665H50.8972C50.8972 32.2583 50.4178 32.7339 49.8298 32.7339Z" fill="#191C22"/>
<path d="M50.8599 32.8086V30.3367C50.8599 29.6334 51.43 29.0633 52.1332 29.0633H53.3317C54.035 29.0633 54.6051 29.6334 54.6051 30.3367V32.8086H50.8599Z" fill="#191C22"/>
<path d="M64.3613 32.7339V32.8088H65.5036V31.6665H65.4287C65.4287 32.2583 64.9493 32.7339 64.3613 32.7339Z" fill="#191C22"/>
<path d="M69.1363 29.0635H65.3911V32.8088H69.1363V29.0635Z" fill="#191C22"/>
<path d="M83.6678 29.0635H79.9226V32.8088H83.6678V29.0635Z" fill="#191C22"/>
<path d="M87.1882 30.1346V31.7414C87.1882 32.3331 87.6676 32.8088 88.2594 32.8088H89.8661C90.4615 32.8088 90.9372 32.3294 90.9372 31.7376V30.1346C90.9334 29.5391 90.454 29.0635 89.8623 29.0635H88.2594C87.6676 29.0635 87.1882 29.5429 87.1882 30.1346Z" fill="#191C22"/>
<path d="M94.4541 30.1346V31.7414C94.4541 32.3331 94.9335 32.8088 95.5252 32.8088H97.1319C97.7274 32.8088 98.203 32.3294 98.203 31.7376V30.1346C98.1993 29.5391 97.7199 29.0635 97.1282 29.0635H95.5252C94.9335 29.0635 94.4541 29.5429 94.4541 30.1346Z" fill="#191C22"/>
<path d="M100.69 32.7339V32.8088H101.832V31.6665H101.757C101.757 32.2583 101.278 32.7339 100.69 32.7339Z" fill="#191C22"/>
<path d="M101.72 32.8086V30.3367C101.72 29.6334 102.29 29.0633 102.993 29.0633H104.192C104.895 29.0633 105.465 29.6334 105.465 30.3367V32.8086H101.72Z" fill="#191C22"/>
<path d="M107.955 32.7339V32.8088H109.098V31.6665H109.023C109.023 32.2583 108.543 32.7339 107.955 32.7339Z" fill="#191C22"/>
<path d="M108.985 32.8086V30.3367C108.985 29.6334 109.555 29.0633 110.259 29.0633H111.457C112.16 29.0633 112.731 29.6334 112.731 30.3367V32.8086H108.985Z" fill="#191C22"/>
<path d="M116.251 30.1346V31.7414C116.251 32.3331 116.73 32.8088 117.322 32.8088H118.929C119.524 32.8088 120 32.3294 120 31.7376V30.1346C119.996 29.5391 119.517 29.0635 118.925 29.0635H117.322C116.73 29.0635 116.251 29.5429 116.251 30.1346Z" fill="#191C22"/>
<path d="M7.37793 36.4419H4.9061C4.20283 36.4419 3.63273 35.8718 3.63273 35.1685L3.63273 33.97C3.63273 33.2667 4.20283 32.6966 4.9061 32.6966H7.37793L7.37793 36.4419Z" fill="#191C22"/>
<path d="M7.26562 36.4419V32.6966H9.73746C10.4407 32.6966 11.0108 33.2667 11.0108 33.97V36.4419H7.26562Z" fill="#191C22"/>
<path d="M13.5015 36.3672V36.4421H14.6438V35.2998H14.5688C14.5688 35.8916 14.0895 36.3672 13.5015 36.3672Z" fill="#191C22"/>
<path d="M14.5315 36.4419V33.97C14.5315 33.2667 15.1016 32.6966 15.8049 32.6966H17.0033C17.7066 32.6966 18.2767 33.2667 18.2767 33.97V36.4419H14.5315Z" fill="#191C22"/>
<path d="M25.4299 33.7679V35.3747C25.4299 35.9664 25.9093 36.4421 26.5011 36.4421H28.1078C28.7032 36.4421 29.1789 35.9627 29.1789 35.3709V33.7679C29.1751 33.1724 28.6957 32.6968 28.104 32.6968H26.5011C25.9093 32.6968 25.4299 33.1762 25.4299 33.7679Z" fill="#191C22"/>
<path d="M40.0736 32.6968H36.3284V36.4421H40.0736V32.6968Z" fill="#191C22"/>
<path d="M47.3394 36.4419H43.5942V33.97C43.5942 33.2667 44.1643 32.6966 44.8675 32.6966H47.3394V36.4419Z" fill="#191C22"/>
<path d="M50.9723 32.6968H47.2271V36.4421H50.9723V32.6968Z" fill="#191C22"/>
<path d="M54.6051 32.6968H50.8599V36.4421H54.6051V32.6968Z" fill="#191C22"/>
<path d="M54.4927 36.4419V32.6966H56.9645C57.6678 32.6966 58.2379 33.2667 58.2379 33.97V36.4419H54.4927Z" fill="#191C22"/>
<path d="M65.5034 36.4419H63.0316C62.3283 36.4419 61.7582 35.8718 61.7582 35.1685V33.97C61.7582 33.2667 62.3283 32.6966 63.0316 32.6966H65.5034V36.4419Z" fill="#191C22"/>
<path d="M69.1363 32.6968H65.3911V36.4421H69.1363V32.6968Z" fill="#191C22"/>
<path d="M83.6677 32.6968V36.4421H81.1959C80.4926 36.4421 79.9225 35.872 79.9225 35.1687V32.6968H83.6677Z" fill="#191C22"/>
<path d="M83.5554 36.4419V32.6966H86.0273C86.7305 32.6966 87.3006 33.2667 87.3006 33.97V36.4419H83.5554Z" fill="#191C22"/>
<path d="M90.821 33.7679V35.3747C90.821 35.9664 91.3004 36.4421 91.8922 36.4421H93.4989C94.0944 36.4421 94.57 35.9627 94.57 35.3709V33.7679C94.5662 33.1724 94.0869 32.6968 93.4951 32.6968H91.8922C91.3004 32.6968 90.821 33.1762 90.821 33.7679Z" fill="#191C22"/>
<path d="M101.832 36.4419H98.0868V33.97C98.0868 33.2667 98.6569 32.6966 99.3602 32.6966H101.832V36.4419Z" fill="#191C22"/>
<path d="M105.465 32.6968H101.72V36.4421H105.465V32.6968Z" fill="#191C22"/>
<path d="M109.098 32.6968H105.353V36.4421H109.098V32.6968Z" fill="#191C22"/>
<path d="M112.731 32.6968H108.985V36.4421H112.731V32.6968Z" fill="#191C22"/>
<path d="M0 37.4008V39.0075C0 39.5993 0.479386 40.0749 1.07113 40.0749H2.67782C3.27331 40.0749 3.74895 39.5955 3.74895 39.0037V37.4008C3.7452 36.8052 3.26582 36.3296 2.67407 36.3296H1.07113C0.479386 36.3296 0 36.809 0 37.4008Z" fill="#191C22"/>
<path d="M11.0107 36.3296V40.0749H8.53891C7.83565 40.0749 7.26554 39.5048 7.26554 38.8015V36.3296H11.0107Z" fill="#191C22"/>
<path d="M14.6436 36.3296H10.8984V40.0749H14.6436V36.3296Z" fill="#191C22"/>
<path d="M18.2767 36.3296H14.5315V40.0749H18.2767V36.3296Z" fill="#191C22"/>
<path d="M21.9095 36.3296H18.1643V40.0749H21.9095V36.3296Z" fill="#191C22"/>
<path d="M21.7971 40.0747V36.3294H24.269C24.9722 36.3294 25.5423 36.8995 25.5423 37.6028V40.0747H21.7971Z" fill="#191C22"/>
<path d="M36.4407 40.0747H32.6955V37.6028C32.6955 36.8995 33.2656 36.3294 33.9688 36.3294H36.4407V40.0747Z" fill="#191C22"/>
<path d="M40.0736 36.3296H36.3284V40.0749H40.0736V36.3296Z" fill="#191C22"/>
<path d="M42.5642 40V40.0749H43.7065V38.9326H43.6316C43.6316 39.5244 43.1522 40 42.5642 40Z" fill="#191C22"/>
<path d="M47.3394 36.3296H43.5942V40.0749H47.3394V36.3296Z" fill="#191C22"/>
<path d="M47.2271 36.3296H50.9723V38.8015C50.9723 39.5048 50.4021 40.0749 49.6989 40.0749H47.2271V36.3296Z" fill="#191C22"/>
<path d="M57.0957 40V40.0749H58.238V38.9326H58.1631C58.1631 39.5244 57.6837 40 57.0957 40Z" fill="#191C22"/>
<path d="M58.1255 40.0747V37.6028C58.1255 36.8995 58.6956 36.3294 59.3989 36.3294H60.5973C61.3006 36.3294 61.8707 36.8995 61.8707 37.6028V40.0747H58.1255Z" fill="#191C22"/>
<path d="M69.1363 36.3296H65.3911V40.0749H69.1363V36.3296Z" fill="#191C22"/>
<path d="M72.7694 36.3296H69.0242V40.0749H72.7694V36.3296Z" fill="#191C22"/>
<path d="M72.657 40.0747V36.3294H75.1288C75.8321 36.3294 76.4022 36.8995 76.4022 37.6028V40.0747H72.657Z" fill="#191C22"/>
<path d="M97.0569 40V40.0749H98.1992V38.9326H98.1243C98.1243 39.5244 97.6449 40 97.0569 40Z" fill="#191C22"/>
<path d="M101.832 36.3296H98.0869V40.0749H101.832V36.3296Z" fill="#191C22"/>
<path d="M109.098 36.3296V40.0749H106.626C105.923 40.0749 105.352 39.5048 105.352 38.8015V36.3296H109.098Z" fill="#191C22"/>
<path d="M112.731 36.3296H108.985V40.0749H112.731V36.3296Z" fill="#191C22"/>
<path d="M112.618 40.0747V36.3294H115.09C115.793 36.3294 116.363 36.8995 116.363 37.6028V40.0747H112.618Z" fill="#191C22"/>
<path d="M14.6436 39.9624H10.8984V43.7077H14.6436V39.9624Z" fill="#191C22"/>
<path d="M18.2767 39.9624H14.5315V43.7077H18.2767V39.9624Z" fill="#191C22"/>
<path d="M24.3999 43.6328V43.7078H25.5422V42.5654H25.4673C25.4673 43.1572 24.9879 43.6328 24.3999 43.6328Z" fill="#191C22"/>
<path d="M25.4299 43.7075V41.2356C25.4299 40.5323 26 39.9622 26.7033 39.9622H27.9018C28.605 39.9622 29.1751 40.5323 29.1751 41.2356V43.7075H25.4299Z" fill="#191C22"/>
<path d="M36.4407 39.9624V43.7077H33.9688C33.2656 43.7077 32.6955 43.1376 32.6955 42.4343V39.9624H36.4407Z" fill="#191C22"/>
<path d="M40.0736 39.9624H36.3284V43.7077H40.0736V39.9624Z" fill="#191C22"/>
<path d="M43.7064 39.9624H39.9612V43.7077H43.7064V39.9624Z" fill="#191C22"/>
<path d="M43.5942 39.9624H47.3394V42.4343C47.3394 43.1376 46.7693 43.7077 46.0661 43.7077H43.5942V39.9624Z" fill="#191C22"/>
<path d="M58.2378 43.7075H55.766C55.0627 43.7075 54.4926 43.1374 54.4926 42.4341V41.2356C54.4926 40.5323 55.0627 39.9622 55.766 39.9622H58.2378V43.7075Z" fill="#191C22"/>
<path d="M58.1255 39.9624H61.8707V42.4343C61.8707 43.1376 61.3006 43.7077 60.5973 43.7077H58.1255V39.9624Z" fill="#191C22"/>
<path d="M69.1362 39.9624V42.4343C69.1362 43.1376 68.5661 43.7077 67.8629 43.7077H66.6644C65.9611 43.7077 65.391 43.1376 65.391 42.4343V39.9624H69.1362Z" fill="#191C22"/>
<path d="M76.4021 39.9624V42.4343C76.4021 43.1376 75.832 43.7077 75.1287 43.7077H73.9303C73.227 43.7077 72.6569 43.1376 72.6569 42.4343V39.9624H76.4021Z" fill="#191C22"/>
<path d="M98.1992 43.7075H94.454V41.2356C94.454 40.5323 95.0241 39.9622 95.7274 39.9622H98.1992V43.7075Z" fill="#191C22"/>
<path d="M101.832 39.9624H98.0869V43.7077H101.832V39.9624Z" fill="#191C22"/>
<path d="M112.73 39.9624V42.4343C112.73 43.1376 112.16 43.7077 111.457 43.7077H110.259C109.555 43.7077 108.985 43.1376 108.985 42.4343V39.9624H112.73Z" fill="#191C22"/>
<path d="M0 44.6669V46.2736C0 46.8654 0.479386 47.341 1.07113 47.341H2.67782C3.27331 47.341 3.74895 46.8616 3.74895 46.2699V44.6669C3.7452 44.0714 3.26582 43.5957 2.67407 43.5957H1.07113C0.479386 43.5957 0 44.0751 0 44.6669Z" fill="#191C22"/>
<path d="M9.86865 47.2661V47.3411H11.0109V46.1987H10.936C10.936 46.7905 10.4566 47.2661 9.86865 47.2661Z" fill="#191C22"/>
<path d="M14.6436 43.5957H10.8984V47.341H14.6436V43.5957Z" fill="#191C22"/>
<path d="M18.2767 43.5957H14.5315V47.341H18.2767V43.5957Z" fill="#191C22"/>
<path d="M21.9095 43.5957H18.1643V47.341H21.9095V43.5957Z" fill="#191C22"/>
<path d="M25.5423 43.5957H21.7971V47.341H25.5423V43.5957Z" fill="#191C22"/>
<path d="M25.4299 43.5957H29.1751V46.0676C29.1751 46.7709 28.605 47.341 27.9018 47.341H25.4299V43.5957Z" fill="#191C22"/>
<path d="M43.7064 43.5957H39.9612V47.341H43.7064V43.5957Z" fill="#191C22"/>
<path d="M80.0349 47.3408H76.2897V44.8689C76.2897 44.1656 76.8598 43.5955 77.5631 43.5955H80.0349V47.3408Z" fill="#191C22"/>
<path d="M79.9226 47.3408V43.5955H82.3944C83.0977 43.5955 83.6678 44.1656 83.6678 44.8689V47.3408H79.9226Z" fill="#191C22"/>
<path d="M87.1882 44.6669V46.2736C87.1882 46.8654 87.6676 47.341 88.2594 47.341H89.8661C90.4615 47.341 90.9372 46.8616 90.9372 46.2699V44.6669C90.9334 44.0714 90.454 43.5957 89.8623 43.5957H88.2594C87.6676 43.5957 87.1882 44.0751 87.1882 44.6669Z" fill="#191C22"/>
<path d="M98.1993 43.5957H94.4541V47.341H98.1993V43.5957Z" fill="#191C22"/>
<path d="M101.832 43.5957H98.0869V47.341H101.832V43.5957Z" fill="#191C22"/>
<path d="M105.353 47.3408V44.8689C105.353 44.1656 105.923 43.5955 106.626 43.5955H107.824C108.528 43.5955 109.098 44.1656 109.098 44.8689V47.3408H105.353Z" fill="#191C22"/>
<path d="M116.251 47.3408V44.8689C116.251 44.1656 116.821 43.5955 117.524 43.5955H118.723C119.426 43.5955 119.996 44.1656 119.996 44.8689V47.3408H116.251Z" fill="#191C22"/>
<path d="M6.23584 50.899V50.9739H7.37813V49.8315H7.30322C7.30322 50.4233 6.82384 50.899 6.23584 50.899Z" fill="#191C22"/>
<path d="M11.0107 50.9736H7.26554V48.5017C7.26554 47.7984 7.83565 47.2283 8.53891 47.2283H11.0107V50.9736Z" fill="#191C22"/>
<path d="M10.8984 47.2285H14.6436V49.7004C14.6436 50.4037 14.0735 50.9738 13.3703 50.9738H10.8984V47.2285Z" fill="#191C22"/>
<path d="M21.9094 47.2285V49.7004C21.9094 50.4037 21.3393 50.9738 20.6361 50.9738H19.4376C18.7343 50.9738 18.1642 50.4037 18.1642 49.7004V47.2285H21.9094Z" fill="#191C22"/>
<path d="M43.7064 47.2285H39.9612V50.9738H43.7064V47.2285Z" fill="#191C22"/>
<path d="M80.0349 47.2285V49.7004C80.0349 50.4037 79.4648 50.9738 78.7615 50.9738H77.5631C76.8598 50.9738 76.2897 50.4037 76.2897 49.7004V47.2285H80.0349Z" fill="#191C22"/>
<path d="M83.5554 48.2997V49.9064C83.5554 50.4982 84.0348 50.9738 84.6265 50.9738H86.2332C86.8287 50.9738 87.3044 50.4944 87.3044 49.9027V48.2997C87.3006 47.7042 86.8212 47.2285 86.2295 47.2285H84.6265C84.0348 47.2285 83.5554 47.7079 83.5554 48.2997Z" fill="#191C22"/>
<path d="M98.1992 47.2285V50.9738H95.7274C95.0241 50.9738 94.454 50.4037 94.454 49.7004V47.2285H98.1992Z" fill="#191C22"/>
<path d="M98.0869 47.2285H101.832V49.7004C101.832 50.4037 101.262 50.9738 100.559 50.9738H98.0869V47.2285Z" fill="#191C22"/>
<path d="M104.323 50.899V50.9739H105.465V49.8315H105.39C105.39 50.4233 104.911 50.899 104.323 50.899Z" fill="#191C22"/>
<path d="M109.098 47.2285H105.353V50.9738H109.098V47.2285Z" fill="#191C22"/>
<path d="M119.996 47.2285V49.7004C119.996 50.4037 119.426 50.9738 118.723 50.9738H117.524C116.821 50.9738 116.251 50.4037 116.251 49.7004V47.2285H119.996Z" fill="#191C22"/>
<path d="M7.37793 54.6064H4.9061C4.20283 54.6064 3.63273 54.0363 3.63273 53.333L3.63273 52.1345C3.63273 51.4313 4.20283 50.8611 4.9061 50.8611H7.37793L7.37793 54.6064Z" fill="#191C22"/>
<path d="M7.26562 50.8613H11.0108V53.3332C11.0108 54.0365 10.4407 54.6066 9.73746 54.6066H7.26562V50.8613Z" fill="#191C22"/>
<path d="M21.7971 51.9325V53.5392C21.7971 54.131 22.2765 54.6066 22.8682 54.6066H24.4749C25.0704 54.6066 25.5461 54.1272 25.5461 53.5355V51.9325C25.5423 51.337 25.0629 50.8613 24.4712 50.8613H22.8682C22.2765 50.8613 21.7971 51.3407 21.7971 51.9325Z" fill="#191C22"/>
<path d="M32.8079 54.6064H30.336C29.6328 54.6064 29.0627 54.0363 29.0627 53.333V52.1345C29.0627 51.4313 29.6328 50.8611 30.336 50.8611H32.8079V54.6064Z" fill="#191C22"/>
<path d="M32.6956 54.6064V50.8611H35.1674C35.8707 50.8611 36.4408 51.4313 36.4408 52.1345V54.6064H32.6956Z" fill="#191C22"/>
<path d="M43.7064 50.8613H39.9612V54.6066H43.7064V50.8613Z" fill="#191C22"/>
<path d="M79.9226 51.9325V53.5392C79.9226 54.131 80.402 54.6066 80.9937 54.6066H82.6004C83.1959 54.6066 83.6716 54.1272 83.6716 53.5355V51.9325C83.6678 51.337 83.1884 50.8613 82.5967 50.8613H80.9937C80.402 50.8613 79.9226 51.3407 79.9226 51.9325Z" fill="#191C22"/>
<path d="M90.821 54.6064V52.1345C90.821 51.4313 91.3912 50.8611 92.0944 50.8611H93.2929C93.9961 50.8611 94.5662 51.4313 94.5662 52.1345V54.6064H90.821Z" fill="#191C22"/>
<path d="M105.465 54.6064H102.993C102.29 54.6064 101.72 54.0363 101.72 53.333V52.1345C101.72 51.4313 102.29 50.8611 102.993 50.8611H105.465V54.6064Z" fill="#191C22"/>
<path d="M109.098 50.8613H105.353V54.6066H109.098V50.8613Z" fill="#191C22"/>
<path d="M111.588 54.5318V54.6067H112.731V53.4644H112.656C112.656 54.0561 112.176 54.5318 111.588 54.5318Z" fill="#191C22"/>
<path d="M112.618 54.6064V52.1345C112.618 51.4313 113.188 50.8611 113.892 50.8611H115.09C115.793 50.8611 116.363 51.4313 116.363 52.1345V54.6064H112.618Z" fill="#191C22"/>
<path d="M0 58.2393L0 55.7673C0 55.0641 0.570107 54.4939 1.27337 54.4939H2.47183C3.1751 54.4939 3.7452 55.0641 3.7452 55.7673V58.2393H0Z" fill="#191C22"/>
<path d="M18.1643 55.5653V57.172C18.1643 57.7638 18.6437 58.2395 19.2354 58.2395H20.8421C21.4376 58.2395 21.9133 57.7601 21.9133 57.1683V55.5653C21.9095 54.9698 21.4301 54.4941 20.8384 54.4941H19.2354C18.6437 54.4941 18.1643 54.9735 18.1643 55.5653Z" fill="#191C22"/>
<path d="M24.3999 58.1646V58.2395H25.5422V57.0972H25.4673C25.4673 57.6889 24.9879 58.1646 24.3999 58.1646Z" fill="#191C22"/>
<path d="M25.4299 58.2393V55.7673C25.4299 55.0641 26 54.4939 26.7033 54.4939H27.9018C28.605 54.4939 29.1751 55.0641 29.1751 55.7673V58.2393H25.4299Z" fill="#191C22"/>
<path d="M38.9314 58.1646V58.2395H40.0737V57.0972H39.9988C39.9988 57.6889 39.5194 58.1646 38.9314 58.1646Z" fill="#191C22"/>
<path d="M43.7064 54.4941H39.9612V58.2395H43.7064V54.4941Z" fill="#191C22"/>
<path d="M94.5662 54.4941V58.2395H92.0943C91.3911 58.2395 90.821 57.6693 90.821 56.9661V54.4941H94.5662Z" fill="#191C22"/>
<path d="M98.1993 54.4941H94.4541V58.2395H98.1993V54.4941Z" fill="#191C22"/>
<path d="M98.0869 58.2393V54.4939H100.559C101.262 54.4939 101.832 55.0641 101.832 55.7673V58.2393H98.0869Z" fill="#191C22"/>
<path d="M109.098 54.4941V58.2395H106.626C105.923 58.2395 105.352 57.6693 105.352 56.9661V54.4941H109.098Z" fill="#191C22"/>
<path d="M112.731 54.4941H108.985V58.2395H112.731V54.4941Z" fill="#191C22"/>
<path d="M116.363 54.4941H112.618V58.2395H116.363V54.4941Z" fill="#191C22"/>
<path d="M116.251 58.2393V54.4939H118.723C119.426 54.4939 119.996 55.0641 119.996 55.7673V58.2393H116.251Z" fill="#191C22"/>
<path d="M3.74512 58.1274V60.5994C3.74512 61.3026 3.17501 61.8728 2.47175 61.8728H1.27328C0.570022 61.8728 -8.47876e-05 61.3026 -8.47876e-05 60.5994V58.1274H3.74512Z" fill="#191C22"/>
<path d="M11.0107 61.8726H8.53891C7.83565 61.8726 7.26554 61.3024 7.26554 60.5992V59.4006C7.26554 58.6974 7.83565 58.1272 8.53891 58.1272H11.0107V61.8726Z" fill="#191C22"/>
<path d="M14.6436 58.1274H10.8984V61.8728H14.6436V58.1274Z" fill="#191C22"/>
<path d="M14.5315 61.8726V58.1272H17.0033C17.7066 58.1272 18.2767 58.6974 18.2767 59.4006V61.8726H14.5315Z" fill="#191C22"/>
<path d="M25.5422 61.8726H23.0704C22.3671 61.8726 21.797 61.3024 21.797 60.5992V59.4006C21.797 58.6974 22.3671 58.1272 23.0704 58.1272H25.5422V61.8726Z" fill="#191C22"/>
<path d="M29.1751 58.1274H25.4299V61.8728H29.1751V58.1274Z" fill="#191C22"/>
<path d="M29.0627 61.8726V58.1272H31.5346C32.2378 58.1272 32.8079 58.6974 32.8079 59.4006V61.8726H29.0627Z" fill="#191C22"/>
<path d="M40.0735 61.8726H37.6017C36.8984 61.8726 36.3283 61.3024 36.3283 60.5992V59.4006C36.3283 58.6974 36.8984 58.1272 37.6017 58.1272H40.0735V61.8726Z" fill="#191C22"/>
<path d="M39.9612 58.1274H43.7064V60.5994C43.7064 61.3026 43.1363 61.8728 42.433 61.8728H39.9612V58.1274Z" fill="#191C22"/>
<path d="M101.72 59.1986V60.8053C101.72 61.3971 102.199 61.8728 102.791 61.8728H104.398C104.993 61.8728 105.469 61.3934 105.469 60.8016V59.1986C105.465 58.6031 104.986 58.1274 104.394 58.1274H102.791C102.199 58.1274 101.72 58.6068 101.72 59.1986Z" fill="#191C22"/>
<path d="M14.6436 61.7603H10.8984V65.5056H14.6436V61.7603Z" fill="#191C22"/>
<path d="M18.1643 62.8314V64.4382C18.1643 65.0299 18.6437 65.5056 19.2354 65.5056H20.8421C21.4376 65.5056 21.9133 65.0262 21.9133 64.4344V62.8314C21.9095 62.2359 21.4301 61.7603 20.8384 61.7603H19.2354C18.6437 61.7603 18.1643 62.2397 18.1643 62.8314Z" fill="#191C22"/>
<path d="M29.175 61.7603V64.2322C29.175 64.9354 28.6049 65.5056 27.9017 65.5056H26.7032C26 65.5056 25.4298 64.9354 25.4298 64.2322V61.7603H29.175Z" fill="#191C22"/>
<path d="M31.6658 65.4307V65.5056H32.8081V64.3633H32.7332C32.7332 64.955 32.2538 65.4307 31.6658 65.4307Z" fill="#191C22"/>
<path d="M32.6956 65.5054V63.0335C32.6956 62.3302 33.2657 61.7601 33.9689 61.7601H35.1674C35.8707 61.7601 36.4408 62.3302 36.4408 63.0335V65.5054H32.6956Z" fill="#191C22"/>
<path d="M76.2898 65.5054V63.0335C76.2898 62.3302 76.8599 61.7601 77.5632 61.7601H78.7616C79.4649 61.7601 80.035 62.3302 80.035 63.0335V65.5054H76.2898Z" fill="#191C22"/>
<path d="M82.5254 65.4307V65.5056H83.6677V64.3633H83.5928C83.5928 64.955 83.1134 65.4307 82.5254 65.4307Z" fill="#191C22"/>
<path d="M87.3005 65.5054H83.5553V63.0335C83.5553 62.3302 84.1254 61.7601 84.8287 61.7601H87.3005V65.5054Z" fill="#191C22"/>
<path d="M87.1882 65.5054V61.7601H89.6601C90.3633 61.7601 90.9334 62.3302 90.9334 63.0335V65.5054H87.1882Z" fill="#191C22"/>
<path d="M98.1992 65.5054H95.7274C95.0241 65.5054 94.454 64.9352 94.454 64.232V63.0335C94.454 62.3302 95.0241 61.7601 95.7274 61.7601H98.1992V65.5054Z" fill="#191C22"/>
<path d="M98.0869 65.5054V61.7601H100.559C101.262 61.7601 101.832 62.3302 101.832 63.0335V65.5054H98.0869Z" fill="#191C22"/>
<path d="M112.618 62.8314V64.4382C112.618 65.0299 113.098 65.5056 113.689 65.5056H115.296C115.891 65.5056 116.367 65.0262 116.367 64.4344V62.8314C116.363 62.2359 115.884 61.7603 115.292 61.7603H113.689C113.098 61.7603 112.618 62.2397 112.618 62.8314Z" fill="#191C22"/>
<path d="M7.37793 69.1382H4.9061C4.20283 69.1382 3.63273 68.5681 3.63273 67.8648L3.63273 66.6663C3.63273 65.963 4.20283 65.3929 4.9061 65.3929H7.37793L7.37793 69.1382Z" fill="#191C22"/>
<path d="M11.0108 65.3931H7.26562V69.1384H11.0108V65.3931Z" fill="#191C22"/>
<path d="M14.6436 65.3931H10.8984V69.1384H14.6436V65.3931Z" fill="#191C22"/>
<path d="M14.5315 69.1382V65.3929H17.0033C17.7066 65.3929 18.2767 65.963 18.2767 66.6663V69.1382H14.5315Z" fill="#191C22"/>
<path d="M21.7971 66.4642V68.071C21.7971 68.6627 22.2765 69.1384 22.8682 69.1384H24.4749C25.0704 69.1384 25.5461 68.659 25.5461 68.0672V66.4642C25.5423 65.8687 25.0629 65.3931 24.4712 65.3931H22.8682C22.2765 65.3931 21.7971 65.8725 21.7971 66.4642Z" fill="#191C22"/>
<path d="M32.8079 69.1382H29.0627V66.6663C29.0627 65.963 29.6328 65.3929 30.336 65.3929H32.8079V69.1382Z" fill="#191C22"/>
<path d="M32.6956 65.3931H36.4408V67.865C36.4408 68.5683 35.8707 69.1384 35.1674 69.1384H32.6956V65.3931Z" fill="#191C22"/>
<path d="M39.9612 66.4642V68.071C39.9612 68.6627 40.4406 69.1384 41.0323 69.1384H42.639C43.2345 69.1384 43.7101 68.659 43.7101 68.0672V66.4642C43.7064 65.8687 43.227 65.3931 42.6353 65.3931H41.0323C40.4406 65.3931 39.9612 65.8725 39.9612 66.4642Z" fill="#191C22"/>
<path d="M80.0349 65.3931V69.1384H77.5631C76.8598 69.1384 76.2897 68.5683 76.2897 67.865V65.3931H80.0349Z" fill="#191C22"/>
<path d="M83.6678 65.3931H79.9226V69.1384H83.6678V65.3931Z" fill="#191C22"/>
<path d="M87.3006 65.3931H83.5554V69.1384H87.3006V65.3931Z" fill="#191C22"/>
<path d="M101.832 65.3931V67.865C101.832 68.5683 101.262 69.1384 100.559 69.1384H99.3602C98.6569 69.1384 98.0868 68.5683 98.0868 67.865V65.3931H101.832Z" fill="#191C22"/>
<path d="M109.098 69.1382H105.352V66.6663C105.352 65.963 105.923 65.3929 106.626 65.3929H109.098V69.1382Z" fill="#191C22"/>
<path d="M108.985 69.1382V65.3929H111.457C112.16 65.3929 112.731 65.963 112.731 66.6663V69.1382H108.985Z" fill="#191C22"/>
<path d="M116.251 69.1382V66.6663C116.251 65.963 116.821 65.3929 117.524 65.3929H118.723C119.426 65.3929 119.996 65.963 119.996 66.6663V69.1382H116.251Z" fill="#191C22"/>
<path d="M18.2766 69.0264V71.4983C18.2766 72.2016 17.7065 72.7717 17.0032 72.7717H15.8048C15.1015 72.7717 14.5314 72.2016 14.5314 71.4983V69.0264H18.2766Z" fill="#191C22"/>
<path d="M32.8079 69.0264H29.0627V72.7717H32.8079V69.0264Z" fill="#191C22"/>
<path d="M36.3284 70.0975V71.7043C36.3284 72.296 36.8078 72.7717 37.3995 72.7717H39.0062C39.6017 72.7717 40.0773 72.2923 40.0773 71.7005V70.0975C40.0736 69.502 39.5942 69.0264 39.0024 69.0264H37.3995C36.8078 69.0264 36.3284 69.5058 36.3284 70.0975Z" fill="#191C22"/>
<path d="M83.6678 69.0264H79.9226V72.7717H83.6678V69.0264Z" fill="#191C22"/>
<path d="M87.3006 69.0264H83.5554V72.7717H87.3006V69.0264Z" fill="#191C22"/>
<path d="M90.9334 69.0264H87.1882V72.7717H90.9334V69.0264Z" fill="#191C22"/>
<path d="M94.5662 69.0264H90.821V72.7717H94.5662V69.0264Z" fill="#191C22"/>
<path d="M94.4541 72.7715V69.0262H96.9259C97.6292 69.0262 98.1993 69.5963 98.1993 70.2996V72.7715H94.4541Z" fill="#191C22"/>
<path d="M104.323 72.6968V72.7717H105.465V71.6294H105.39C105.39 72.2212 104.911 72.6968 104.323 72.6968Z" fill="#191C22"/>
<path d="M109.098 69.0264H105.353V72.7717H109.098V69.0264Z" fill="#191C22"/>
<path d="M108.985 69.0264H112.731V71.4983C112.731 72.2016 112.16 72.7717 111.457 72.7717H108.985V69.0264Z" fill="#191C22"/>
<path d="M115.221 72.6968V72.7717H116.363V71.6294H116.289C116.289 72.2212 115.809 72.6968 115.221 72.6968Z" fill="#191C22"/>
<path d="M119.996 69.0264H116.251V72.7717H119.996V69.0264Z" fill="#191C22"/>
<path d="M0 76.4043L0 73.9324C0 73.2291 0.570107 72.659 1.27337 72.659H2.47183C3.1751 72.659 3.7452 73.2291 3.7452 73.9324V76.4043H0Z" fill="#191C22"/>
<path d="M10.8984 76.4043V73.9324C10.8984 73.2291 11.4685 72.659 12.1718 72.659H13.3703C14.0735 72.659 14.6436 73.2291 14.6436 73.9324V76.4043H10.8984Z" fill="#191C22"/>
<path d="M21.9094 76.4043H19.4376C18.7343 76.4043 18.1642 75.8342 18.1642 75.1309V73.9324C18.1642 73.2291 18.7343 72.659 19.4376 72.659H21.9094V76.4043Z" fill="#191C22"/>
<path d="M21.7971 76.4043V72.659H24.269C24.9722 72.659 25.5423 73.2291 25.5423 73.9324V76.4043H21.7971Z" fill="#191C22"/>
<path d="M32.8079 72.6592H29.0627V76.4045H32.8079V72.6592Z" fill="#191C22"/>
<path d="M39.9612 73.7303V75.3371C39.9612 75.9288 40.4406 76.4045 41.0323 76.4045H42.639C43.2345 76.4045 43.7101 75.9251 43.7101 75.3333V73.7303C43.7064 73.1348 43.227 72.6592 42.6353 72.6592H41.0323C40.4406 72.6592 39.9612 73.1386 39.9612 73.7303Z" fill="#191C22"/>
<path d="M78.8926 76.3296V76.4045H80.0349V75.2622H79.96C79.96 75.854 79.4806 76.3296 78.8926 76.3296Z" fill="#191C22"/>
<path d="M83.6678 72.6592H79.9226V76.4045H83.6678V72.6592Z" fill="#191C22"/>
<path d="M90.9333 72.6592V76.4045H88.4615C87.7583 76.4045 87.1881 75.8344 87.1881 75.1311V72.6592H90.9333Z" fill="#191C22"/>
<path d="M94.5662 72.6592H90.821V76.4045H94.5662V72.6592Z" fill="#191C22"/>
<path d="M101.832 76.4043H98.0868V73.9324C98.0868 73.2291 98.6569 72.659 99.3602 72.659H101.832V76.4043Z" fill="#191C22"/>
<path d="M105.465 72.6592H101.72V76.4045H105.465V72.6592Z" fill="#191C22"/>
<path d="M109.098 72.6592H105.353V76.4045H109.098V72.6592Z" fill="#191C22"/>
<path d="M116.363 76.4043H113.891C113.188 76.4043 112.618 75.8342 112.618 75.1309V73.9324C112.618 73.2291 113.188 72.659 113.891 72.659H116.363V76.4043Z" fill="#191C22"/>
<path d="M116.251 72.6592H119.996V75.1311C119.996 75.8344 119.426 76.4045 118.723 76.4045H116.251V72.6592Z" fill="#191C22"/>
<path d="M3.7452 76.292H0V80.0373H3.7452V76.292Z" fill="#191C22"/>
<path d="M14.6436 76.292H10.8984V80.0373H14.6436V76.292Z" fill="#191C22"/>
<path d="M14.5315 80.0371V76.2918H17.0033C17.7066 76.2918 18.2767 76.8619 18.2767 77.5652V80.0371H14.5315Z" fill="#191C22"/>
<path d="M28.0327 79.9624V80.0373H29.175V78.895H29.1001C29.1001 79.4868 28.6207 79.9624 28.0327 79.9624Z" fill="#191C22"/>
<path d="M32.8079 76.292H29.0627V80.0373H32.8079V76.292Z" fill="#191C22"/>
<path d="M46.197 79.9624V80.0373H47.3393V78.895H47.2644C47.2644 79.4868 46.785 79.9624 46.197 79.9624Z" fill="#191C22"/>
<path d="M50.9722 80.0371H47.227V77.5652C47.227 76.8619 47.7971 76.2918 48.5003 76.2918H50.9722V80.0371Z" fill="#191C22"/>
<path d="M54.6051 76.292H50.8599V80.0373H54.6051V76.292Z" fill="#191C22"/>
<path d="M54.4927 80.0371V76.2918H56.9645C57.6678 76.2918 58.2379 76.8619 58.2379 77.5652V80.0371H54.4927Z" fill="#191C22"/>
<path d="M60.7285 79.9624V80.0373H61.8708V78.895H61.7959C61.7959 79.4868 61.3165 79.9624 60.7285 79.9624Z" fill="#191C22"/>
<path d="M65.5034 80.0371H61.7582V77.5652C61.7582 76.8619 62.3283 76.2918 63.0316 76.2918H65.5034V80.0371Z" fill="#191C22"/>
<path d="M65.3911 80.0371V76.2918H67.8629C68.5662 76.2918 69.1363 76.8619 69.1363 77.5652V80.0371H65.3911Z" fill="#191C22"/>
<path d="M76.4021 80.0371H73.9303C73.227 80.0371 72.6569 79.467 72.6569 78.7637V77.5652C72.6569 76.8619 73.227 76.2918 73.9303 76.2918H76.4021V80.0371Z" fill="#191C22"/>
<path d="M80.035 76.292H76.2898V80.0373H80.035V76.292Z" fill="#191C22"/>
<path d="M83.6678 76.292H79.9226V80.0373H83.6678V76.292Z" fill="#191C22"/>
<path d="M83.5554 80.0371V76.2918H86.0273C86.7305 76.2918 87.3006 76.8619 87.3006 77.5652V80.0371H83.5554Z" fill="#191C22"/>
<path d="M94.5662 76.292V78.7639C94.5662 79.4672 93.9961 80.0373 93.2928 80.0373H92.0943C91.3911 80.0373 90.821 79.4672 90.821 78.7639V76.292H94.5662Z" fill="#191C22"/>
<path d="M101.832 76.292H98.0869V80.0373H101.832V76.292Z" fill="#191C22"/>
<path d="M105.465 76.292H101.72V80.0373H105.465V76.292Z" fill="#191C22"/>
<path d="M105.353 76.292H109.098V78.7639C109.098 79.4672 108.528 80.0373 107.824 80.0373H105.353V76.292Z" fill="#191C22"/>
<path d="M3.7452 79.9253H0V83.6706H3.7452V79.9253Z" fill="#191C22"/>
<path d="M9.86865 83.5957V83.6706H11.0109V82.5283H10.936C10.936 83.1201 10.4566 83.5957 9.86865 83.5957Z" fill="#191C22"/>
<path d="M14.6436 79.9253H10.8984V83.6706H14.6436V79.9253Z" fill="#191C22"/>
<path d="M21.9094 83.6704H19.4376C18.7343 83.6704 18.1642 83.1003 18.1642 82.397V81.1985C18.1642 80.4952 18.7343 79.9251 19.4376 79.9251H21.9094V83.6704Z" fill="#191C22"/>
<path d="M25.5423 79.9253H21.7971V83.6706H25.5423V79.9253Z" fill="#191C22"/>
<path d="M29.1751 79.9253H25.4299V83.6706H29.1751V79.9253Z" fill="#191C22"/>
<path d="M32.8079 79.9253H29.0627V83.6706H32.8079V79.9253Z" fill="#191C22"/>
<path d="M36.4408 79.9253H32.6956V83.6706H36.4408V79.9253Z" fill="#191C22"/>
<path d="M40.0736 79.9253H36.3284V83.6706H40.0736V79.9253Z" fill="#191C22"/>
<path d="M43.7064 79.9253H39.9612V83.6706H43.7064V79.9253Z" fill="#191C22"/>
<path d="M47.3394 79.9253H43.5942V83.6706H47.3394V79.9253Z" fill="#191C22"/>
<path d="M47.2271 79.9253H50.9723V82.3972C50.9723 83.1005 50.4021 83.6706 49.6989 83.6706H47.2271V79.9253Z" fill="#191C22"/>
<path d="M61.8706 83.6704H59.3988C58.6955 83.6704 58.1254 83.1003 58.1254 82.397V81.1985C58.1254 80.4952 58.6955 79.9251 59.3988 79.9251H61.8706V83.6704Z" fill="#191C22"/>
<path d="M61.7583 79.9253H65.5035V82.3972C65.5035 83.1005 64.9334 83.6706 64.2301 83.6706H61.7583V79.9253Z" fill="#191C22"/>
<path d="M67.9941 83.5957V83.6706H69.1364V82.5283H69.0615C69.0615 83.1201 68.5821 83.5957 67.9941 83.5957Z" fill="#191C22"/>
<path d="M69.0242 83.6704V81.1985C69.0242 80.4952 69.5943 79.9251 70.2975 79.9251H71.496C72.1993 79.9251 72.7694 80.4952 72.7694 81.1985V83.6704H69.0242Z" fill="#191C22"/>
<path d="M80.0349 79.9253V82.3972C80.0349 83.1005 79.4648 83.6706 78.7615 83.6706H77.5631C76.8598 83.6706 76.2897 83.1005 76.2897 82.3972V79.9253H80.0349Z" fill="#191C22"/>
<path d="M87.1882 80.9965V82.6032C87.1882 83.195 87.6676 83.6706 88.2594 83.6706H89.8661C90.4615 83.6706 90.9372 83.1912 90.9372 82.5995V80.9965C90.9334 80.4009 90.454 79.9253 89.8623 79.9253H88.2594C87.6676 79.9253 87.1882 80.4047 87.1882 80.9965Z" fill="#191C22"/>
<path d="M101.832 79.9253H98.0869V83.6706H101.832V79.9253Z" fill="#191C22"/>
<path d="M105.465 79.9253H101.72V83.6706H105.465V79.9253Z" fill="#191C22"/>
<path d="M112.73 83.6704H108.985V81.1985C108.985 80.4952 109.555 79.9251 110.259 79.9251H112.73V83.6704Z" fill="#191C22"/>
<path d="M112.618 83.6704V79.9251H115.09C115.793 79.9251 116.363 80.4952 116.363 81.1985V83.6704H112.618Z" fill="#191C22"/>
<path d="M3.7452 83.5581H0V87.3034H3.7452V83.5581Z" fill="#191C22"/>
<path d="M11.0107 87.3032H8.53891C7.83565 87.3032 7.26554 86.7331 7.26554 86.0298V84.8313C7.26554 84.128 7.83565 83.5579 8.53891 83.5579H11.0107V87.3032Z" fill="#191C22"/>
<path d="M14.6436 83.5581H10.8984V87.3034H14.6436V83.5581Z" fill="#191C22"/>
<path d="M14.5315 87.3032V83.5579H17.0033C17.7066 83.5579 18.2767 84.128 18.2767 84.8313V87.3032H14.5315Z" fill="#191C22"/>
<path d="M29.175 83.5581V86.03C29.175 86.7333 28.6049 87.3034 27.9017 87.3034H26.7032C26 87.3034 25.4298 86.7333 25.4298 86.03V83.5581H29.175Z" fill="#191C22"/>
<path d="M36.4408 83.5581H32.6956V87.3034H36.4408V83.5581Z" fill="#191C22"/>
<path d="M54.4927 87.3032V84.8313C54.4927 84.128 55.0628 83.5579 55.766 83.5579H56.9645C57.6678 83.5579 58.2379 84.128 58.2379 84.8313V87.3032H54.4927Z" fill="#191C22"/>
<path d="M69.1362 87.3032H65.391V84.8313C65.391 84.128 65.9611 83.5579 66.6644 83.5579H69.1362V87.3032Z" fill="#191C22"/>
<path d="M72.7694 83.5581H69.0242V87.3034H72.7694V83.5581Z" fill="#191C22"/>
<path d="M72.657 87.3032V83.5579H75.1288C75.8321 83.5579 76.4022 84.128 76.4022 84.8313V87.3032H72.657Z" fill="#191C22"/>
<path d="M79.9226 84.6293V86.236C79.9226 86.8278 80.402 87.3034 80.9937 87.3034H82.6004C83.1959 87.3034 83.6716 86.824 83.6716 86.2323V84.6293C83.6678 84.0338 83.1884 83.5581 82.5967 83.5581H80.9937C80.402 83.5581 79.9226 84.0375 79.9226 84.6293Z" fill="#191C22"/>
<path d="M97.0569 87.2285V87.3035H98.1992V86.1611H98.1243C98.1243 86.7529 97.6449 87.2285 97.0569 87.2285Z" fill="#191C22"/>
<path d="M101.832 83.5581H98.0869V87.3034H101.832V83.5581Z" fill="#191C22"/>
<path d="M105.465 83.5581H101.72V87.3034H105.465V83.5581Z" fill="#191C22"/>
<path d="M112.73 83.5581V86.03C112.73 86.7333 112.16 87.3034 111.457 87.3034H110.259C109.555 87.3034 108.985 86.7333 108.985 86.03V83.5581H112.73Z" fill="#191C22"/>
<path d="M116.251 84.6293V86.236C116.251 86.8278 116.73 87.3034 117.322 87.3034H118.929C119.524 87.3034 120 86.824 120 86.2323V84.6293C119.996 84.0338 119.517 83.5581 118.925 83.5581H117.322C116.73 83.5581 116.251 84.0375 116.251 84.6293Z" fill="#191C22"/>
<path d="M3.74512 87.1909L3.74512 90.9362H1.27328C0.570022 90.9362 -8.47876e-05 90.3661 -8.47876e-05 89.6628V87.1909H3.74512Z" fill="#191C22"/>
<path d="M3.63281 90.936L3.63281 87.1907H6.10465C6.80791 87.1907 7.37801 87.7608 7.37801 88.4641V90.936H3.63281Z" fill="#191C22"/>
<path d="M14.6436 87.1909V90.9362H12.1717C11.4685 90.9362 10.8984 90.3661 10.8984 89.6628V87.1909H14.6436Z" fill="#191C22"/>
<path d="M18.2767 87.1909H14.5315V90.9362H18.2767V87.1909Z" fill="#191C22"/>
<path d="M21.9095 87.1909H18.1643V90.9362H21.9095V87.1909Z" fill="#191C22"/>
<path d="M21.7971 90.936V87.1907H24.269C24.9722 87.1907 25.5423 87.7608 25.5423 88.4641V90.936H21.7971Z" fill="#191C22"/>
<path d="M36.4407 87.1909V90.9362H33.9688C33.2656 90.9362 32.6955 90.3661 32.6955 89.6628V87.1909H36.4407Z" fill="#191C22"/>
<path d="M40.0736 87.1909H36.3284V90.9362H40.0736V87.1909Z" fill="#191C22"/>
<path d="M39.9612 90.936V87.1907H42.433C43.1363 87.1907 43.7064 87.7608 43.7064 88.4641V90.936H39.9612Z" fill="#191C22"/>
<path d="M47.2271 88.2621V89.8688C47.2271 90.4606 47.7064 90.9362 48.2982 90.9362H49.9049C50.5004 90.9362 50.976 90.4568 50.976 89.8651V88.2621C50.9723 87.6666 50.4929 87.1909 49.9011 87.1909H48.2982C47.7064 87.1909 47.2271 87.6703 47.2271 88.2621Z" fill="#191C22"/>
<path d="M58.2378 87.1909V90.9362H55.766C55.0627 90.9362 54.4926 90.3661 54.4926 89.6628V87.1909H58.2378Z" fill="#191C22"/>
<path d="M58.1255 90.936V87.1907H60.5973C61.3006 87.1907 61.8707 87.7608 61.8707 88.4641V90.936H58.1255Z" fill="#191C22"/>
<path d="M69.1362 87.1909V90.9362H66.6644C65.9611 90.9362 65.391 90.3661 65.391 89.6628V87.1909H69.1362Z" fill="#191C22"/>
<path d="M69.0242 87.1909H72.7694V89.6628C72.7694 90.3661 72.1993 90.9362 71.496 90.9362H69.0242V87.1909Z" fill="#191C22"/>
<path d="M87.3005 90.936H84.8287C84.1254 90.936 83.5553 90.3659 83.5553 89.6626V88.4641C83.5553 87.7608 84.1254 87.1907 84.8287 87.1907H87.3005V90.936Z" fill="#191C22"/>
<path d="M90.9334 87.1909H87.1882V90.9362H90.9334V87.1909Z" fill="#191C22"/>
<path d="M94.5662 87.1909H90.821V90.9362H94.5662V87.1909Z" fill="#191C22"/>
<path d="M98.1993 87.1909H94.4541V90.9362H98.1993V87.1909Z" fill="#191C22"/>
<path d="M101.832 87.1909H98.0869V90.9362H101.832V87.1909Z" fill="#191C22"/>
<path d="M105.465 87.1909H101.72V90.9362H105.465V87.1909Z" fill="#191C22"/>
<path d="M105.353 90.936V87.1907H107.824C108.528 87.1907 109.098 87.7608 109.098 88.4641V90.936H105.353Z" fill="#191C22"/>
<path d="M29.0627 91.8949V93.5016C29.0627 94.0934 29.5421 94.569 30.1339 94.569H31.7406C32.3361 94.569 32.8117 94.0896 32.8117 93.4979V91.8949C32.8079 91.2994 32.3286 90.8237 31.7368 90.8237H30.1339C29.5421 90.8237 29.0627 91.3031 29.0627 91.8949Z" fill="#191C22"/>
<path d="M40.0735 90.8237V94.569H37.6017C36.8984 94.569 36.3283 93.9989 36.3283 93.2956V90.8237H40.0735Z" fill="#191C22"/>
<path d="M43.7064 90.8237H39.9612V94.569H43.7064V90.8237Z" fill="#191C22"/>
<path d="M43.5942 94.5688V90.8235H46.0661C46.7693 90.8235 47.3394 91.3937 47.3394 92.0969V94.5688H43.5942Z" fill="#191C22"/>
<path d="M50.8599 91.8949V93.5016C50.8599 94.0934 51.3392 94.569 51.931 94.569H53.5377C54.1332 94.569 54.6088 94.0896 54.6088 93.4979V91.8949C54.6051 91.2994 54.1257 90.8237 53.5339 90.8237H51.931C51.3392 90.8237 50.8599 91.3031 50.8599 91.8949Z" fill="#191C22"/>
<path d="M61.8706 90.8237V93.2956C61.8706 93.9989 61.3005 94.569 60.5972 94.569H59.3988C58.6955 94.569 58.1254 93.9989 58.1254 93.2956V90.8237H61.8706Z" fill="#191C22"/>
<path d="M76.2898 91.8949V93.5016C76.2898 94.0934 76.7692 94.569 77.3609 94.569H78.9676C79.5631 94.569 80.0387 94.0896 80.0387 93.4979V91.8949C80.035 91.2994 79.5556 90.8237 78.9639 90.8237H77.3609C76.7692 90.8237 76.2898 91.3031 76.2898 91.8949Z" fill="#191C22"/>
<path d="M90.9334 90.8237H87.1882V94.569H90.9334V90.8237Z" fill="#191C22"/>
<path d="M105.465 90.8237H101.72V94.569H105.465V90.8237Z" fill="#191C22"/>
<path d="M105.353 90.8237H109.098V93.2956C109.098 93.9989 108.528 94.569 107.824 94.569H105.353V90.8237Z" fill="#191C22"/>
<path d="M116.251 91.8949V93.5016C116.251 94.0934 116.73 94.569 117.322 94.569H118.929C119.524 94.569 120 94.0896 120 93.4979V91.8949C119.996 91.2994 119.517 90.8237 118.925 90.8237H117.322C116.73 90.8237 116.251 91.3031 116.251 91.8949Z" fill="#191C22"/>
<path d="M47.3394 94.457V98.2023H44.8675C44.1643 98.2023 43.5942 97.6322 43.5942 96.9289V94.457H47.3394Z" fill="#191C22"/>
<path d="M47.2271 98.2021V94.4568H49.6989C50.4021 94.4568 50.9723 95.027 50.9723 95.7302V98.2021H47.2271Z" fill="#191C22"/>
<path d="M53.4626 98.1275V98.2024H54.6049V97.0601H54.53C54.53 97.6518 54.0506 98.1275 53.4626 98.1275Z" fill="#191C22"/>
<path d="M54.4927 98.2021V95.7302C54.4927 95.027 55.0628 94.4568 55.766 94.4568H56.9645C57.6678 94.4568 58.2379 95.027 58.2379 95.7302V98.2021H54.4927Z" fill="#191C22"/>
<path d="M69.1362 98.2021H65.391V95.7302C65.391 95.027 65.9611 94.4568 66.6644 94.4568H69.1362V98.2021Z" fill="#191C22"/>
<path d="M69.0242 98.2021V94.4568H71.496C72.1993 94.4568 72.7694 95.027 72.7694 95.7302V98.2021H69.0242Z" fill="#191C22"/>
<path d="M78.8926 98.1275V98.2024H80.0349V97.0601H79.96C79.96 97.6518 79.4806 98.1275 78.8926 98.1275Z" fill="#191C22"/>
<path d="M83.6677 98.2021H79.9225V95.7302C79.9225 95.027 80.4926 94.4568 81.1959 94.4568H83.6677V98.2021Z" fill="#191C22"/>
<path d="M87.3006 94.457H83.5554V98.2023H87.3006V94.457Z" fill="#191C22"/>
<path d="M90.9334 94.457H87.1882V98.2023H90.9334V94.457Z" fill="#191C22"/>
<path d="M94.4541 95.5282V97.1349C94.4541 97.7267 94.9335 98.2023 95.5252 98.2023H97.1319C97.7274 98.2023 98.203 97.7229 98.203 97.1312V95.5282C98.1993 94.9327 97.7199 94.457 97.1282 94.457H95.5252C94.9335 94.457 94.4541 94.9364 94.4541 95.5282Z" fill="#191C22"/>
<path d="M105.465 94.457H101.72V98.2023H105.465V94.457Z" fill="#191C22"/>
<path d="M111.588 98.1275V98.2024H112.731V97.0601H112.656C112.656 97.6518 112.176 98.1275 111.588 98.1275Z" fill="#191C22"/>
<path d="M112.618 98.2021V95.7302C112.618 95.027 113.188 94.4568 113.892 94.4568H115.09C115.793 94.4568 116.363 95.027 116.363 95.7302V98.2021H112.618Z" fill="#191C22"/>
<path d="M29.0627 99.161V100.768C29.0627 101.36 29.5421 101.835 30.1339 101.835H31.7406C32.3361 101.835 32.8117 101.356 32.8117 100.764V99.161C32.8079 98.5655 32.3286 98.0898 31.7368 98.0898H30.1339C29.5421 98.0898 29.0627 98.5692 29.0627 99.161Z" fill="#191C22"/>
<path d="M38.9314 101.76V101.835H40.0737V100.693H39.9988C39.9988 101.285 39.5194 101.76 38.9314 101.76Z" fill="#191C22"/>
<path d="M39.9612 101.835V99.3631C39.9612 98.6598 40.5313 98.0896 41.2346 98.0896H42.433C43.1363 98.0896 43.7064 98.6598 43.7064 99.3631V101.835H39.9612Z" fill="#191C22"/>
<path d="M54.605 101.835H52.1331C51.4299 101.835 50.8598 101.265 50.8598 100.562V99.3631C50.8598 98.6598 51.4299 98.0896 52.1331 98.0896H54.605V101.835Z" fill="#191C22"/>
<path d="M58.2379 98.0898H54.4927V101.835H58.2379V98.0898Z" fill="#191C22"/>
<path d="M58.1255 101.835V98.0896H60.5973C61.3006 98.0896 61.8707 98.6598 61.8707 99.3631V101.835H58.1255Z" fill="#191C22"/>
<path d="M64.3613 101.76V101.835H65.5036V100.693H65.4287C65.4287 101.285 64.9493 101.76 64.3613 101.76Z" fill="#191C22"/>
<path d="M69.1363 98.0898H65.3911V101.835H69.1363V98.0898Z" fill="#191C22"/>
<path d="M76.4021 101.835H72.6569V99.3631C72.6569 98.6598 73.227 98.0896 73.9303 98.0896H76.4021V101.835Z" fill="#191C22"/>
<path d="M80.035 98.0898H76.2898V101.835H80.035V98.0898Z" fill="#191C22"/>
<path d="M83.6678 98.0898H79.9226V101.835H83.6678V98.0898Z" fill="#191C22"/>
<path d="M87.3006 98.0898H83.5554V101.835H87.3006V98.0898Z" fill="#191C22"/>
<path d="M90.9334 98.0898H87.1882V101.835H90.9334V98.0898Z" fill="#191C22"/>
<path d="M100.69 101.76V101.835H101.832V100.693H101.757C101.757 101.285 101.278 101.76 100.69 101.76Z" fill="#191C22"/>
<path d="M105.465 98.0898H101.72V101.835H105.465V98.0898Z" fill="#191C22"/>
<path d="M109.098 98.0898H105.353V101.835H109.098V98.0898Z" fill="#191C22"/>
<path d="M112.731 98.0898H108.985V101.835H112.731V98.0898Z" fill="#191C22"/>
<path d="M116.363 98.0898H112.618V101.835H116.363V98.0898Z" fill="#191C22"/>
<path d="M36.4407 105.468H33.9688C33.2656 105.468 32.6955 104.898 32.6955 104.194V102.996C32.6955 102.293 33.2656 101.722 33.9688 101.722H36.4407V105.468Z" fill="#191C22"/>
<path d="M40.0736 101.723H36.3284V105.468H40.0736V101.723Z" fill="#191C22"/>
<path d="M39.9612 101.723H43.7064V104.195C43.7064 104.898 43.1363 105.468 42.433 105.468H39.9612V101.723Z" fill="#191C22"/>
<path d="M58.2378 101.723V105.468H55.766C55.0627 105.468 54.4926 104.898 54.4926 104.195V101.723H58.2378Z" fill="#191C22"/>
<path d="M61.8707 101.723H58.1255V105.468H61.8707V101.723Z" fill="#191C22"/>
<path d="M65.5035 101.723H61.7583V105.468H65.5035V101.723Z" fill="#191C22"/>
<path d="M65.3911 101.723H69.1363V104.195C69.1363 104.898 68.5662 105.468 67.8629 105.468H65.3911V101.723Z" fill="#191C22"/>
<path d="M76.4021 101.723V105.468H73.9303C73.227 105.468 72.6569 104.898 72.6569 104.195V101.723H76.4021Z" fill="#191C22"/>
<path d="M80.035 101.723H76.2898V105.468H80.035V101.723Z" fill="#191C22"/>
<path d="M79.9226 101.723H83.6678V104.195C83.6678 104.898 83.0977 105.468 82.3944 105.468H79.9226V101.723Z" fill="#191C22"/>
<path d="M90.9333 101.723V105.468H88.4615C87.7583 105.468 87.1881 104.898 87.1881 104.195V101.723H90.9333Z" fill="#191C22"/>
<path d="M94.5662 101.723H90.821V105.468H94.5662V101.723Z" fill="#191C22"/>
<path d="M98.1993 101.723H94.4541V105.468H98.1993V101.723Z" fill="#191C22"/>
<path d="M101.832 101.723H98.0869V105.468H101.832V101.723Z" fill="#191C22"/>
<path d="M105.465 101.723H101.72V105.468H105.465V101.723Z" fill="#191C22"/>
<path d="M109.098 101.723H105.353V105.468H109.098V101.723Z" fill="#191C22"/>
<path d="M116.363 101.723V105.468H113.891C113.188 105.468 112.618 104.898 112.618 104.195V101.723H116.363Z" fill="#191C22"/>
<path d="M116.251 105.468V101.722H118.723C119.426 101.722 119.996 102.293 119.996 102.996V105.468H116.251Z" fill="#191C22"/>
<path d="M40.0735 105.356V107.828C40.0735 108.531 39.5034 109.101 38.8001 109.101H37.6017C36.8984 109.101 36.3283 108.531 36.3283 107.828V105.356H40.0735Z" fill="#191C22"/>
<path d="M42.5642 109.026V109.101H43.7065V107.959H43.6316C43.6316 108.551 43.1522 109.026 42.5642 109.026Z" fill="#191C22"/>
<path d="M43.5942 109.101V106.629C43.5942 105.926 44.1643 105.356 44.8676 105.356H46.0661C46.7693 105.356 47.3394 105.926 47.3394 106.629V109.101H43.5942Z" fill="#191C22"/>
<path d="M61.8706 105.356V107.828C61.8706 108.531 61.3005 109.101 60.5972 109.101H59.3988C58.6955 109.101 58.1254 108.531 58.1254 107.828V105.356H61.8706Z" fill="#191C22"/>
<path d="M83.5554 106.427V108.034C83.5554 108.626 84.0348 109.101 84.6265 109.101H86.2332C86.8287 109.101 87.3044 108.622 87.3044 108.03V106.427C87.3006 105.832 86.8212 105.356 86.2295 105.356H84.6265C84.0348 105.356 83.5554 105.835 83.5554 106.427Z" fill="#191C22"/>
<path d="M94.5662 105.356V107.828C94.5662 108.531 93.9961 109.101 93.2928 109.101H92.0943C91.3911 109.101 90.821 108.531 90.821 107.828V105.356H94.5662Z" fill="#191C22"/>
<path d="M101.832 105.356V109.101H99.3602C98.6569 109.101 98.0868 108.531 98.0868 107.828V105.356H101.832Z" fill="#191C22"/>
<path d="M105.465 105.356H101.72V109.101H105.465V105.356Z" fill="#191C22"/>
<path d="M109.098 105.356H105.353V109.101H109.098V105.356Z" fill="#191C22"/>
<path d="M108.985 109.101V105.356H111.457C112.16 105.356 112.731 105.926 112.731 106.629V109.101H108.985Z" fill="#191C22"/>
<path d="M119.996 105.356H116.251V109.101H119.996V105.356Z" fill="#191C22"/>
<path d="M32.6956 110.06V111.667C32.6956 112.258 33.1749 112.734 33.7667 112.734H35.3734C35.9689 112.734 36.4445 112.255 36.4445 111.663V110.06C36.4408 109.464 35.9614 108.989 35.3696 108.989H33.7667C33.1749 108.989 32.6956 109.468 32.6956 110.06Z" fill="#191C22"/>
<path d="M38.9314 112.659V112.734H40.0737V111.592H39.9988C39.9988 112.184 39.5194 112.659 38.9314 112.659Z" fill="#191C22"/>
<path d="M43.7063 112.734H39.9611V110.262C39.9611 109.559 40.5312 108.989 41.2345 108.989H43.7063V112.734Z" fill="#191C22"/>
<path d="M47.3394 108.989H43.5942V112.734H47.3394V108.989Z" fill="#191C22"/>
<path d="M47.2271 112.734V108.989H49.6989C50.4021 108.989 50.9723 109.559 50.9723 110.262V112.734H47.2271Z" fill="#191C22"/>
<path d="M60.7285 112.659V112.734H61.8708V111.592H61.7959C61.7959 112.184 61.3165 112.659 60.7285 112.659Z" fill="#191C22"/>
<path d="M65.5034 112.734H61.7582V110.262C61.7582 109.559 62.3283 108.989 63.0316 108.989H65.5034V112.734Z" fill="#191C22"/>
<path d="M65.3911 112.734V108.989H67.8629C68.5662 108.989 69.1363 109.559 69.1363 110.262V112.734H65.3911Z" fill="#191C22"/>
<path d="M76.2898 112.734V110.262C76.2898 109.559 76.8599 108.989 77.5632 108.989H78.7616C79.4649 108.989 80.035 109.559 80.035 110.262V112.734H76.2898Z" fill="#191C22"/>
<path d="M105.465 108.989V112.734H102.993C102.29 112.734 101.72 112.164 101.72 111.461V108.989H105.465Z" fill="#191C22"/>
<path d="M109.098 108.989H105.353V112.734H109.098V108.989Z" fill="#191C22"/>
<path d="M116.363 112.734H113.891C113.188 112.734 112.618 112.164 112.618 111.46V110.262C112.618 109.559 113.188 108.989 113.891 108.989H116.363V112.734Z" fill="#191C22"/>
<path d="M116.251 108.989H119.996V111.461C119.996 112.164 119.426 112.734 118.723 112.734H116.251V108.989Z" fill="#191C22"/>
<path d="M40.0735 116.367H37.6017C36.8984 116.367 36.3283 115.797 36.3283 115.093V113.895C36.3283 113.192 36.8984 112.621 37.6017 112.621H40.0735V116.367Z" fill="#191C22"/>
<path d="M43.7064 112.622H39.9612V116.367H43.7064V112.622Z" fill="#191C22"/>
<path d="M47.3394 112.622H43.5942V116.367H47.3394V112.622Z" fill="#191C22"/>
<path d="M50.9723 112.622H47.2271V116.367H50.9723V112.622Z" fill="#191C22"/>
<path d="M50.8599 116.367V112.621H53.3317C54.035 112.621 54.6051 113.192 54.6051 113.895V116.367H50.8599Z" fill="#191C22"/>
<path d="M61.8706 116.367H59.3988C58.6955 116.367 58.1254 115.797 58.1254 115.093V113.895C58.1254 113.192 58.6955 112.621 59.3988 112.621H61.8706V116.367Z" fill="#191C22"/>
<path d="M65.5035 112.622H61.7583V116.367H65.5035V112.622Z" fill="#191C22"/>
<path d="M65.3911 112.622H69.1363V115.093C69.1363 115.797 68.5662 116.367 67.8629 116.367H65.3911V112.622Z" fill="#191C22"/>
<path d="M80.0349 112.622V115.093C80.0349 115.797 79.4648 116.367 78.7615 116.367H77.5631C76.8598 116.367 76.2897 115.797 76.2897 115.093V112.622H80.0349Z" fill="#191C22"/>
<path d="M89.7913 116.292V116.367H90.9335V115.225H90.8586C90.8586 115.816 90.3793 116.292 89.7913 116.292Z" fill="#191C22"/>
<path d="M90.821 116.367V113.895C90.821 113.192 91.3912 112.621 92.0944 112.621H93.2929C93.9961 112.621 94.5662 113.192 94.5662 113.895V116.367H90.821Z" fill="#191C22"/>
<path d="M109.098 112.622V116.367H106.626C105.923 116.367 105.352 115.797 105.352 115.093V112.622H109.098Z" fill="#191C22"/>
<path d="M108.985 116.367V112.621H111.457C112.16 112.621 112.731 113.192 112.731 113.895V116.367H108.985Z" fill="#191C22"/>
<path d="M32.6956 117.326V118.933C32.6956 119.525 33.1749 120 33.7667 120H35.3734C35.9689 120 36.4445 119.521 36.4445 118.929V117.326C36.4408 116.731 35.9614 116.255 35.3696 116.255H33.7667C33.1749 116.255 32.6956 116.734 32.6956 117.326Z" fill="#191C22"/>
<path d="M54.605 116.255V118.727C54.605 119.43 54.0349 120 53.3316 120H52.1331C51.4299 120 50.8598 119.43 50.8598 118.727V116.255H54.605Z" fill="#191C22"/>
<path d="M65.5034 116.255V118.727C65.5034 119.43 64.9333 120 64.23 120H63.0316C62.3283 120 61.7582 119.43 61.7582 118.727V116.255H65.5034Z" fill="#191C22"/>
<path d="M72.7693 120H70.2975C69.5942 120 69.0241 119.43 69.0241 118.727V117.528C69.0241 116.825 69.5942 116.255 70.2975 116.255H72.7693V120Z" fill="#191C22"/>
<path d="M72.657 120V116.255H75.1288C75.8321 116.255 76.4022 116.825 76.4022 117.528V120H72.657Z" fill="#191C22"/>
<path d="M87.3005 120H84.8287C84.1254 120 83.5553 119.43 83.5553 118.727V117.528C83.5553 116.825 84.1254 116.255 84.8287 116.255H87.3005V120Z" fill="#191C22"/>
<path d="M90.9334 116.255H87.1882V120H90.9334V116.255Z" fill="#191C22"/>
<path d="M90.821 116.255H94.5662V118.727C94.5662 119.43 93.9961 120 93.2929 120H90.821V116.255Z" fill="#191C22"/>
<path d="M112.618 117.326V118.933C112.618 119.525 113.098 120 113.689 120H115.296C115.891 120 116.367 119.521 116.367 118.929V117.326C116.363 116.731 115.884 116.255 115.292 116.255H113.689C113.098 116.255 112.618 116.734 112.618 117.326Z" fill="#191C22"/>
<path fill-rule="evenodd" clip-rule="evenodd" d="M22.4713 17.1284V9.08832C22.4713 5.51956 21.9858 4.64879 21.777 4.43953C21.5678 4.23073 20.697 3.74525 17.1279 3.74525H9.08851C5.51939 3.74525 4.64865 4.23073 4.43986 4.43953C4.23107 4.64879 3.74513 5.51956 3.74513 9.08832V17.1284C3.74513 20.6977 4.23107 21.5684 4.43986 21.7777C4.64865 21.986 5.51939 22.472 9.08851 22.472H17.1279C20.697 22.472 21.5678 21.986 21.777 21.7777C21.9858 21.5684 22.4713 20.6977 22.4713 17.1284ZM17.1279 0C24.4688 0 26.2164 1.74763 26.2164 9.08832C26.2164 16.4295 26.2164 9.78775 26.2164 17.1284C26.2164 24.4696 24.4688 26.2172 17.1279 26.2172C9.78744 26.2172 16.429 26.2172 9.08851 26.2172C1.74757 26.2172 0 24.4696 0 17.1284C0 9.78775 0 13.188 0 9.08832C0 1.74763 1.74757 0 9.08851 0C16.429 0 9.78744 0 17.1279 0ZM14.8309 7.49064C17.9771 7.49064 18.726 8.24001 18.726 11.3854C18.726 14.5318 18.726 11.6855 18.726 14.8313C18.726 17.9772 17.9771 18.7266 14.8309 18.7266C11.6851 18.7266 14.5313 18.7266 11.3855 18.7266C8.23976 18.7266 7.4904 17.9772 7.4904 14.8313C7.4904 11.6855 7.4904 13.1426 7.4904 11.3854C7.4904 8.24001 8.23976 7.49064 11.3855 7.49064C14.5313 7.49064 11.6851 7.49064 14.8309 7.49064Z" fill="#191C22"/>
<path fill-rule="evenodd" clip-rule="evenodd" d="M115.952 17.1284V9.08832C115.952 5.51956 115.466 4.64879 115.257 4.43953C115.048 4.23073 114.177 3.74525 110.608 3.74525H102.569C98.9996 3.74525 98.1289 4.23073 97.9201 4.43953C97.7113 4.64879 97.2254 5.51956 97.2254 9.08832V17.1284C97.2254 20.6977 97.7113 21.5684 97.9201 21.7777C98.1289 21.986 98.9996 22.472 102.569 22.472H110.608C114.177 22.472 115.048 21.986 115.257 21.7777C115.466 21.5684 115.952 20.6977 115.952 17.1284ZM110.608 0C117.949 0 119.697 1.74763 119.697 9.08832C119.697 16.4295 119.697 9.78775 119.697 17.1284C119.697 24.4696 117.949 26.2172 110.608 26.2172C103.268 26.2172 109.909 26.2172 102.569 26.2172C95.2278 26.2172 93.4802 24.4696 93.4802 17.1284C93.4802 9.78775 93.4802 13.188 93.4802 9.08832C93.4802 1.74763 95.2278 0 102.569 0C109.909 0 103.268 0 110.608 0ZM108.311 7.49064C111.457 7.49064 112.206 8.24001 112.206 11.3854C112.206 14.5318 112.206 11.6855 112.206 14.8313C112.206 17.9772 111.457 18.7266 108.311 18.7266C105.165 18.7266 108.012 18.7266 104.866 18.7266C101.72 18.7266 100.971 17.9772 100.971 14.8313C100.971 11.6855 100.971 13.1426 100.971 11.3854C100.971 8.24001 101.72 7.49064 104.866 7.49064C108.012 7.49064 105.165 7.49064 108.311 7.49064Z" fill="#191C22"/>
<path fill-rule="evenodd" clip-rule="evenodd" d="M22.4713 110.612V102.572C22.4713 99.003 21.9858 98.1322 21.777 97.9229C21.5678 97.7141 20.697 97.2287 17.1279 97.2287H9.08851C5.51939 97.2287 4.64865 97.7141 4.43986 97.9229C4.23107 98.1322 3.74513 99.003 3.74513 102.572V110.612C3.74513 114.181 4.23107 115.052 4.43986 115.261C4.64865 115.469 5.51939 115.955 9.08851 115.955H17.1279C20.697 115.955 21.5678 115.469 21.777 115.261C21.9858 115.052 22.4713 114.181 22.4713 110.612ZM17.1279 93.4834C24.4688 93.4834 26.2164 95.231 26.2164 102.572C26.2164 109.913 26.2164 103.271 26.2164 110.612C26.2164 117.953 24.4688 119.701 17.1279 119.701C9.78744 119.701 16.429 119.701 9.08851 119.701C1.74757 119.701 0 117.953 0 110.612C0 103.271 0 106.671 0 102.572C0 95.231 1.74757 93.4834 9.08851 93.4834C16.429 93.4834 9.78744 93.4834 17.1279 93.4834ZM14.8309 100.974C17.9771 100.974 18.726 101.723 18.726 104.869C18.726 108.015 18.726 105.169 18.726 108.315C18.726 111.461 17.9771 112.21 14.8309 112.21C11.6851 112.21 14.5313 112.21 11.3855 112.21C8.23976 112.21 7.4904 111.461 7.4904 108.315C7.4904 105.169 7.4904 106.626 7.4904 104.869C7.4904 101.723 8.23976 100.974 11.3855 100.974C14.5313 100.974 11.6851 100.974 14.8309 100.974Z" fill="#191C22"/>
<path d="M59.8882 70.945C65.9326 70.945 70.8325 66.0441 70.8325 59.9986C70.8325 53.9531 65.9326 49.0522 59.8882 49.0522C53.8438 49.0522 48.9439 53.9531 48.9439 59.9986C48.9439 66.0441 53.8438 70.945 59.8882 70.945Z" fill="#FFC800"/>
<path d="M64.5981 68.1542C60.8814 70.2993 56.8505 70.6837 54.2757 69.3988C57.5722 71.3634 61.8047 71.5333 65.3623 69.4795C68.9198 67.4236 70.8896 63.6729 70.8366 59.8351C70.6625 62.7086 68.3149 66.0091 64.5981 68.1542Z" fill="#28303F"/>
<path d="M61.2762 49.8551C62.0297 51.1591 60.2085 53.6228 57.2071 55.3537C54.2057 57.0847 51.164 57.433 50.4104 56.1268C50.3786 56.0652 50.3489 55.9973 50.3276 55.9272C50.1324 55.3197 50.3658 54.5339 50.9283 53.7056C51.0196 53.5761 51.113 53.4486 51.2085 53.3233C52.0576 52.2168 53.1338 51.2568 54.4158 50.5177C55.6979 49.7765 57.067 49.3262 58.4489 49.1436C58.6102 49.1202 58.7673 49.1032 58.9201 49.0926C59.9177 49.0183 60.7137 49.2094 61.1425 49.6809C61.1934 49.7383 61.238 49.7956 61.2762 49.8551Z" fill="#28303F"/>
<path d="M65.929 51.2674C67.2451 53.5463 64.5897 57.5413 60.0005 60.1919C55.4114 62.8424 50.6227 63.144 49.3088 60.8651C49.0901 60.485 48.9734 60.0623 48.95 59.6078C48.8927 61.1391 49.1559 62.6959 49.7694 64.1741C49.8607 64.395 49.9604 64.6137 50.0666 64.8304C50.0708 64.8389 50.0772 64.8495 50.0814 64.858C50.4783 65.544 51.0642 66.0835 51.7944 66.4742C54.3691 67.8526 58.7227 67.379 62.7939 65.0279C66.863 62.6768 69.4505 59.1448 69.546 56.2266C69.5736 55.4026 69.4017 54.6274 69.009 53.9414C68.8604 53.7184 68.7054 53.4996 68.542 53.2915C67.5762 52.0426 66.3748 51.0487 65.0396 50.3393C65.4111 50.5835 65.7125 50.8915 65.929 51.2674C65.929 51.2674 65.9312 51.2696 65.9312 51.2717L65.929 51.2674Z" fill="#28303F"/>
<path d="M59.8904 70.945C65.9348 70.945 70.8347 66.0441 70.8347 59.9986C70.8347 53.9531 65.9348 49.0522 59.8904 49.0522C53.846 49.0522 48.946 53.9531 48.946 59.9986C48.946 66.0441 53.846 70.945 59.8904 70.945Z" fill="url(#paint0_radial_17834_3511)"/>
<defs>
<radialGradient id="paint0_radial_17834_3511" cx="0" cy="0" r="1" gradientUnits="userSpaceOnUse" gradientTransform="translate(59.8894 59.9995) scale(10.9441 10.9503)">
<stop offset="0.5" stop-color="white" stop-opacity="0"/>
<stop offset="1" stop-color="white" stop-opacity="0.25"/>
</radialGradient>
</defs>
</svg>
