<svg viewBox="0 0 21 20" fill="none" xmlns="http://www.w3.org/2000/svg">
<path fill-rule="evenodd" clip-rule="evenodd" d="M14.8726 0H6.12737C2.00737 0 0.5 1.50737 0.5 5.62737V14.3726C0.5 18.4926 2.00737 20 6.12737 20H14.8705C18.9905 20 20.5 18.4926 20.5 14.3726V5.62737C20.5 1.50737 18.9926 0 14.8726 0Z" fill="#C8102E"/>
<path d="M4.46084 10.0029H4.99137V12.6177H4.46084V11.5566H3.26295V12.6177H2.73242V10.0029H3.26295V11.0577H4.46084V10.0029ZM7.45032 11.4998C7.45032 11.925 7.23979 12.1524 6.85663 12.1524C6.47137 12.1524 6.25874 11.9187 6.25874 11.4829V10.005H5.72821V11.4998C5.72821 12.2345 6.13663 12.6577 6.85032 12.6577C7.57032 12.6577 7.98295 12.2282 7.98295 11.4787V10.0029H7.45242V11.4998H7.45032ZM13.5808 11.8008L12.9872 10.0029H12.5535L11.9598 11.8008L11.3829 10.0029H10.8187L11.7303 12.6156H12.1703L12.764 10.8998L13.3577 12.6156H13.7998L14.7093 10.0029H14.1598L13.5808 11.8008ZM15.6608 11.4914H16.6251V11.0156H15.6608V10.4808H17.0608V10.005H15.1366V12.6156H17.1114V12.1398H15.6608V11.4914ZM17.7451 12.6135H18.2693V10.0029H17.7451V12.6135ZM9.02926 12.0724L8.79137 12.6177H8.25032L9.4019 10.005H9.86927L11.0166 12.6177H10.4608L10.2251 12.0724H9.02926ZM9.22716 11.6008H10.0293L9.62716 10.6661L9.22716 11.6008Z" fill="white"/>
<path d="M10.5003 6.67217C8.66451 6.67217 7.17188 5.17954 7.17188 3.34375H7.64135C7.64135 4.92059 8.92345 6.2027 10.5003 6.2027C12.0771 6.2027 13.3592 4.92059 13.3592 3.34375H13.8287C13.8287 5.17954 12.3361 6.67217 10.5003 6.67217Z" fill="white"/>
</svg>
