<svg width="19" height="22" viewBox="0 0 19 22" fill="none" xmlns="http://www.w3.org/2000/svg">
<path d="M15.2705 11.6996C15.245 8.92019 17.5951 7.56802 17.7026 7.50507C16.3716 5.6053 14.3086 5.34573 13.5837 5.32504C11.8511 5.14653 10.1704 6.34003 9.28779 6.34003C8.38756 6.34003 7.0284 5.34228 5.56355 5.3716C3.67852 5.40006 1.91506 6.46852 0.947881 8.12769C-1.04813 11.5107 0.440511 16.4822 2.35284 19.2167C3.30945 20.5559 4.42725 22.0513 5.89034 21.9986C7.32173 21.9409 7.85641 21.1053 9.58376 21.1053C11.2953 21.1053 11.7973 21.9986 13.2895 21.965C14.8257 21.9409 15.7929 20.6197 16.716 19.2684C17.8215 17.7334 18.2654 16.2217 18.2831 16.1441C18.2469 16.1321 15.2996 15.0308 15.2705 11.6996Z" fill="#28303F"/>
<path d="M12.4518 3.52617C13.2217 2.58361 13.7484 1.30129 13.6022 0C12.4879 0.0482918 11.0944 0.75456 10.292 1.67642C9.582 2.48875 8.94778 3.82023 9.11162 5.07237C10.3633 5.16378 11.6485 4.45406 12.4518 3.52617Z" fill="#28303F"/>
</svg>
