<svg width="24" height="24" viewBox="0 0 24 24" fill="none" xmlns="http://www.w3.org/2000/svg">
<path d="M13.37 15.31C13.37 15.31 12.67 15.54 11.87 15.55C10.91 15.55 10.07 15.22 10.07 15.22L3 12.94V15.87C3 18.56 5.19 20.75 7.88 20.75H15.88C18.57 20.75 20.76 18.56 20.76 15.87V12.92L13.37 15.31Z" fill="#28303F"/>
<path d="M3 11.1C5.3 11.84 9.12 13.07 10.92 13.65C11.15 13.72 11.48 13.8 11.88 13.8C12.33 13.8 12.61 13.72 12.84 13.65C14.18 13.24 18.38 11.86 18.38 11.86L20.75 11.08V10.88C20.75 10.87 20.75 10.86 20.75 10.84V9.88C20.75 8.29 19.46 7 17.87 7H15.74V5.88C15.75 4.29 14.46 3 12.88 3H10.88C9.29 3 8 4.29 8 5.88V7H5.88C4.29 7 3 8.29 3 9.88V10.84C3 10.85 3 10.86 3 10.88V11.1ZM12.75 11.54C12.75 12.02 12.36 12.42 11.87 12.42C11.38 12.42 11 12.03 11 11.54V10.21C11 9.73 11.39 9.33 11.88 9.33C12.37 9.33 12.76 9.72 12.76 10.21V11.54H12.75ZM9.75 5.88C9.75 5.26 10.25 4.75 10.88 4.75H12.88C13.5 4.75 14.01 5.25 14.01 5.88V7H9.75V5.88Z" fill="#28303F"/>
</svg>
