<svg width="81" height="81" viewBox="0 0 81 81" fill="none" xmlns="http://www.w3.org/2000/svg">
<g opacity="0.8">
<path fill-rule="evenodd" clip-rule="evenodd" d="M79.9942 9.97658C81.8417 4.43424 76.5689 -0.838561 71.0265 1.00889L19.1964 18.2856C13.3759 20.2257 12.6006 28.1416 17.9339 31.1743L36.5312 41.7492C37.6672 42.3951 38.6078 43.3357 39.2537 44.4717L49.8288 63.0692C52.8615 68.4025 60.7773 67.6272 62.7175 61.8068L79.9942 9.97658ZM72.9173 6.68122C73.7854 6.39186 74.6112 7.21772 74.3219 8.0858L57.0451 59.916C56.7413 60.8276 55.5014 60.9491 55.0264 60.1137L44.4514 41.5162C44.3627 41.3603 44.271 41.2063 44.1763 41.0545L50.3825 34.8483C51.55 33.6808 51.55 31.7879 50.3825 30.6204C49.215 29.4529 47.3221 29.4529 46.1546 30.6204L39.9484 36.8266C39.7965 36.7319 39.6426 36.6402 39.4867 36.5515L20.8894 25.9766C20.054 25.5016 20.1755 24.2618 21.0871 23.9579L72.9173 6.68122Z" fill="#C8CED9"/>
<path d="M29 50L10 69" stroke="#C8CED9" stroke-width="6" stroke-linecap="round"/>
<path d="M41 65L33 73.5" stroke="#C8CED9" stroke-width="6" stroke-linecap="round"/>
<path d="M13 38L5 46.5" stroke="#C8CED9" stroke-width="6" stroke-linecap="round"/>
</g>
</svg>
