<svg viewBox="0 0 19 20" fill="none" xmlns="http://www.w3.org/2000/svg">
<path d="M0.867829 0.308649C0.634837 0.547754 0.5 0.920017 0.5 1.40211V18.5982C0.5 19.0803 0.634837 19.4525 0.867829 19.6917L0.925334 19.7441L10.7546 10.1119V9.88449L0.925334 0.252275L0.867829 0.308649Z" fill="url(#paint0_linear_648_89146)"/>
<path d="M14.0277 13.3242L10.7549 10.1119V9.88442L14.0316 6.67207L14.105 6.71386L17.9856 8.87843C19.093 9.49272 19.093 10.5036 17.9856 11.1217L14.105 13.2824L14.0277 13.3242Z" fill="url(#paint1_linear_648_89146)"/>
<path d="M14.1051 13.2827L10.7549 9.99838L0.868164 19.6918C1.23599 20.0709 1.83582 20.1166 2.51794 19.7375L14.1051 13.2827Z" fill="url(#paint2_linear_648_89146)"/>
<path d="M14.1051 6.71377L2.51794 0.258922C1.83582 -0.116259 1.23599 -0.0705776 0.868164 0.308491L10.7549 9.99805L14.1051 6.71377Z" fill="url(#paint3_linear_648_89146)"/>
<defs>
<linearGradient id="paint0_linear_648_89146" x1="9.88189" y1="18.7773" x2="-3.16512" y2="5.46871" gradientUnits="userSpaceOnUse">
<stop stop-color="#00A0FF"/>
<stop offset="0.0066" stop-color="#00A1FF"/>
<stop offset="0.2601" stop-color="#00BEFF"/>
<stop offset="0.5122" stop-color="#00D2FF"/>
<stop offset="0.7604" stop-color="#00DFFF"/>
<stop offset="1" stop-color="#00E3FF"/>
</linearGradient>
<linearGradient id="paint1_linear_648_89146" x1="19.4276" y1="9.99705" x2="0.235555" y2="9.99705" gradientUnits="userSpaceOnUse">
<stop stop-color="#FFE000"/>
<stop offset="0.4087" stop-color="#FFBD00"/>
<stop offset="0.7754" stop-color="#FFA500"/>
<stop offset="1" stop-color="#FF9C00"/>
</linearGradient>
<linearGradient id="paint2_linear_648_89146" x1="12.2834" y1="8.21299" x2="-5.40943" y2="-9.8345" gradientUnits="userSpaceOnUse">
<stop stop-color="#FF3A44"/>
<stop offset="1" stop-color="#C31162"/>
</linearGradient>
<linearGradient id="paint3_linear_648_89146" x1="-1.62054" y1="25.4125" x2="6.28008" y2="17.3536" gradientUnits="userSpaceOnUse">
<stop stop-color="#32A071"/>
<stop offset="0.0685" stop-color="#2DA771"/>
<stop offset="0.4762" stop-color="#15CF74"/>
<stop offset="0.8009" stop-color="#06E775"/>
<stop offset="1" stop-color="#00F076"/>
</linearGradient>
</defs>
</svg>
