<svg width="24" height="24" viewBox="0 0 24 24" fill="none" xmlns="http://www.w3.org/2000/svg">
<path d="M11.88 20.7501C11.79 20.7501 11.7 20.7401 11.61 20.7201C11.23 20.6401 10.99 20.4201 10.69 20.1301L3.87995 13.5801C1.62995 11.4201 1.35995 7.9101 3.24995 5.4201L3.54995 5.0201C4.63995 3.5801 6.33995 2.8401 8.11995 3.0301C9.68995 3.2001 11.05 4.0601 11.88 5.3901C12.71 4.0601 14.08 3.2001 15.64 3.0301C17.41 2.8501 19.12 3.5901 20.2 5.0201L20.5 5.4201C22.39 7.9101 22.12 11.4201 19.87 13.5801L13.06 20.1301C12.76 20.4201 12.52 20.6501 12.13 20.7201C12.06 20.7401 11.97 20.7501 11.88 20.7501Z" fill="#28303F"/>
</svg>
