<svg width="24" height="24" fill="none" xmlns="http://www.w3.org/2000/svg"><path d="M15.88 8.04H9.25V6.92c0-.97.36-1.81.93-2.37.35-.32.8-.55 1.34-.7.18-.05.34-.08.48-.09.07 0 .13-.01.2-.01.28.01.58.07 1.02.23.64.22 1.19.64 1.57 1.18.28.39.83.49 1.22.21a.88.88 0 0 0 .21-1.22c-.6-.84-1.44-1.48-2.42-1.82-.52-.18-1.02-.32-1.58-.33h-.02c-.11 0-.22 0-.33.01h-.01c-.01 0-.02.01-.03.01-1.06.08-1.98.49-2.7 1.14-.05.03-.1.07-.14.11l-.01.01s-.01 0-.01.01c-.01 0-.01.01-.02.01-.14.14-.29.29-.42.45-.04.05-.05.11-.08.16-.61.84-.95 1.89-.95 3.01v1.16c-2.51.2-4.5 2.28-4.5 4.84v4c0 2.69 2.19 4.88 4.88 4.88h8c2.69 0 4.88-2.19 4.88-4.88v-4c-.01-2.69-2.2-4.88-4.88-4.88Zm-3.14 7.88c0 .48-.39.88-.88.88s-.88-.39-.88-.88v-2c0-.48.39-.88.88-.88s.88.39.88.88v2Z" fill="#28303F"/></svg>