<?xml version="1.0" encoding="UTF-8"?>
<svg width="38px" height="38px" viewBox="0 0 38 38" version="1.1" xmlns="http://www.w3.org/2000/svg" xmlns:xlink="http://www.w3.org/1999/xlink">
    <title>Artboard</title>
    <g id="Artboard" stroke="none" stroke-width="1" fill="none" fill-rule="evenodd">
        <g id="telegram_logo-(1)" transform="translate(1.310495, 7.376005)" fill="#FFFFFF" fill-rule="nonzero">
            <path d="M2.34448671,10.9774565 C10.5611457,7.40594867 16.0389184,5.03955087 18.7778048,3.90017415 C26.6000641,0.635421631 28.2214849,0.0876443629 29.2951283,0.0657332722 C29.5361503,0.0657332722 30.0401054,0.109555454 30.3906828,0.394399633 C30.675527,0.635421631 30.7631714,0.942176901 30.7850825,1.16128781 C30.8289047,1.38039872 30.8727268,1.8843538 30.8289047,2.27875344 C30.4125939,6.72670485 28.5720623,17.5507837 27.6298854,22.5465124 C27.2354858,24.6499771 26.4466865,25.3730431 25.7017094,25.4387763 C24.0583776,25.592154 22.8313565,24.3651329 21.2318469,23.3134005 C18.7558937,21.6919798 17.3535839,20.6840696 14.9433639,19.08456 C12.1606554,17.2440284 13.9573648,16.2361182 15.5568744,14.5927864 C15.9731851,14.1545646 23.181934,7.60314848 23.3134005,7.01154903 C23.3353116,6.94581576 23.3572227,6.66097158 23.181934,6.50759395 C23.0066453,6.35421631 22.7656233,6.41994958 22.5903345,6.44186067 C22.3493125,6.50759395 18.3834051,9.11501374 10.6926123,14.3079422 C9.57514665,15.0748304 8.54532538,15.447319 7.64697066,15.447319 C6.63906049,15.4254079 4.71088451,14.8776306 3.26475252,14.4174977 C1.48995417,13.8478093 0.0876443629,13.5410541 0.219110907,12.5769661 C0.30675527,12.0291888 1.00791017,11.5033226 2.34448671,10.9774565 Z" id="Path"></path>
        </g>
    </g>
</svg>