<svg width="24" height="24" viewBox="0 0 24 24" fill="none" xmlns="http://www.w3.org/2000/svg">
<path d="M20.75 12.76C19.69 12.75 18.3 12.75 18.1 12.75H16.32C15.99 12.75 15.62 12.75 15.44 12.78C15.42 12.95 15.42 13.31 15.42 13.63C15.42 13.95 15.42 14.3 15.44 14.48C15.62 14.51 15.99 14.51 16.32 14.51H18.1C18.31 14.51 19.68 14.51 20.74 14.5C20.74 14.43 20.74 14.37 20.74 14.3V14.29C20.74 14.12 20.75 13.96 20.75 13.78C20.75 13.73 20.75 13.68 20.75 13.63C20.75 13.59 20.75 13.56 20.75 13.52C20.75 13.31 20.75 13.1 20.75 12.88V12.76Z" fill="#28303F"/>
<path d="M16.32 16.25C15.35 16.25 14.7 16.25 14.19 15.74C13.67 15.23 13.67 14.59 13.67 13.62C13.67 12.65 13.67 12.02 14.19 11.5C14.7 11 15.35 11 16.32 11H20.75V10.88C20.75 7.91 20.75 6.27 19.62 5.14C18.49 4.01 16.84 4 13.88 4H9.88C6.91 4 5.28 4 4.14 5.13C3 6.27 3 7.91 3 10.88V12.88C3 15.85 3 17.49 4.14 18.62C5.27 19.76 6.91 19.76 9.88 19.76H13.88C16.85 19.76 18.49 19.76 19.62 18.63C20.22 18.03 20.5 17.28 20.63 16.27H16.32V16.25ZM10.1 9.25H7.43C6.95 9.25 6.55 8.86 6.55 8.37C6.55 7.88 6.95 7.5 7.43 7.5H10.1C10.58 7.5 10.98 7.89 10.98 8.38C10.98 8.87 10.58 9.25 10.1 9.25Z" fill="#28303F"/>
</svg>
